<?xml version="1.0" encoding="utf-8"?>
<!-- Generator: Adobe Illustrator 25.2.3, SVG Export Plug-In . SVG Version: 6.00 Build 0)  -->
<svg version="1.1" id="Capa_1" xmlns="http://www.w3.org/2000/svg" xmlns:xlink="http://www.w3.org/1999/xlink" x="0px" y="0px"
	 viewBox="0 0 673.8 469.2" style="enable-background:new 0 0 673.8 469.2;" xml:space="preserve">
<style type="text/css">
	.st0{fill-rule:evenodd;clip-rule:evenodd;fill:#9E9E9E;}
	.st1{fill:#9E9E9E;}
</style>
<g id="Capa_2_1_">
	<g id="Capa_1-2">
		<path class="st0" d="M202.4,292.4c-3.8-8.1-4.2-13.8-4.2-23.1c-0.6-17,1.2-24.5,3.9-40c0-0.1,0-0.2,0.1-0.4
			c10.1-31.2,1.6-58.8-1.8-83.3c-4.8-26.7-11.5-50.7-22.8-74.8C161.2,36.1,118.9,1.4,85.4,0C45.1-0.1,8.6,9.4,0.6,69.7
			c-4.9,43.1,19.5,153.4,62,200.4c0.3,0.3,0.5,0.7,0.6,1.2l2.1,8.5c0.1,0.2,0.1,0.4,0.1,0.6c0.6,16.3,0.4,65.5-3.2,84.6
			c0,0.1,0,0.2,0,0.3c-4,45.5,17.5,100.4,77.5,103.9c0.2,0,0.3,0,0.5,0c37.7-3.9,78.4-26.6,85.8-82c0-0.2,0-0.4,0-0.5
			C225,359.4,213.5,315.9,202.4,292.4 M202,205.6c0,11.1-4.2,20.3-6.8,29.6c-0.4,1.5-2,2.4-3.4,1.9c-0.2-0.1-0.4-0.1-0.6-0.2
			c-11.6-6.1-35.4-28.8-45-36c-11.5-8.6-37.3-27.7-37.3-45.7c0-9.1,16-25.2,25.2-25.2c5.6,0,16.2,8.1,21.5,11.8
			c0.8,0.5,1.2,1.4,1.2,2.3v12.7c0,0.6,0.2,1.2,0.5,1.6C169.3,175.5,202,186.2,202,205.6 M184.4,258.4c0,19-6.1,24.2-18.6,31.8
			c-5.1,3.1-29.9,16.1-34.3,16.1c-2.6,0-17.5-6.2-23.1-7.1c-7.2-1.1-20.9,2-25.3-2.4c-1.1-1.1-9.5-44.7-9.5-45.9
			c0-7.3,33.2-37.8,47.8-37.8c1.4,0,27.6,20.3,32.2,23.2C162.4,241.9,184.4,248.3,184.4,258.4 M194.5,152.7
			c0,8.1-9.9,10.1-17.6,10.1c-4.8,0-15.6-22.9-19.7-29.5c-0.3-0.5-0.7-0.8-1.2-1.1c-7-3.3-29.4-9.7-29.4-14.7
			c0-11.6,4.8-15.2,9.3-21.6c0.5-0.7,1.2-1.1,2-1.2l25.9-2.9c0.3,0,0.6,0,0.9,0l2.1,0.5C185.2,92.2,194.5,135,194.5,152.7 M8.1,72.1
			c0-19.6,22-54.1,41.6-61.5c26.1-9,48.1,4.9,55,11.8c1,1,1.1,2.6,0.2,3.7c-7,9.3-9.6,4.3-13.4,18.7c-2.6,9.8-3.9,16.1-6.4,26.3
			c-4.9,19.6-12.3,34.6-16.1,49.2c-0.3,1.3-1.4,2.1-2.7,2.1h-5.8c-1.2,0-2.3-0.8-2.6-2c-6.2-20.1-21.9-28.2-39.7-28.2h-7.2
			c-1.6,0-2.8-1.3-2.8-2.8V72.1z M18.1,149.9L11,119.4c-1.7-7.4,2.9-14.8,10.3-16.5c4.7-1.1,9.7,0.4,13.1,3.9
			c9.9,10.4,19.4,25.8,29.1,25.8c40.2,0,28.7-108.3,65.5-108.3c4.3,0,32,37.4,38.9,49.8c0.7,1.3,0.3,3-1.1,3.8
			c-0.2,0.1-0.3,0.2-0.5,0.2c-7.6,2.6-9.4,6.7-14.6,6.7h-9.2c-8.5,0-16.4,4-21.5,10.8l-0.2,0.3c-6.1,8.1-10.6,17.4-13.1,27.2
			c-2.9,11.8-7.7,23.1-5.4,36.2c2.2,12.8,8.1,34.5,5.1,46.1c-0.4,1.5-1.9,2.4-3.3,2c-0.2,0-0.3-0.1-0.5-0.2
			c-20.6-8.6-30.3-46.9-75.7-49.3c-3-0.2-5.7-1.6-7.6-3.9C19.2,152.8,18.5,151.3,18.1,149.9 M46,210.7c-0.1-1.5-1.3-2.7-2.8-2.7
			h-6.7c-1.9-0.3-3.2-2.1-2.9-4.1c-0.9-9.3-1.8-18.7-2.8-28c-0.2-1.5,1-2.9,2.5-3.1c0.1,0,0.2,0,0.3,0h9.8
			c12.7,0,32.7,13.1,32.7,27.7v17.6c0,9.7-6.2,15.5-9.3,24.9c-0.5,1.5-2.1,2.3-3.5,1.8c-0.1,0-0.2-0.1-0.4-0.1
			C53.1,239.8,46.7,225,46,210.7 M175.8,443.8c-10.2,7.7-17.2,13.1-31.2,16.8c-21.8,5.7-13.9-6.9-13.2-23.6c0.1-1.3-0.8-2.5-2.1-2.9
			c-3.7-1.1-4.7-2-10.5-2c-3.9,0-5.8,4.2-7,8.1c-0.4,1.2-1.4,2-2.7,2h-7.9c-20.3,0-25.2-35.6-25.2-57.9c0-20.8,29.9-25.2,50.4-25.2
			c1.6-0.1,2.9,1.1,3,2.6c0,0,0,0,0,0L133,422c0.1,1.5,1.3,2.6,2.8,2.6h28.4c3.1,0,20.1-9.4,20.1-12.6c0-37.6-31.8-42.5-52.5-56.3
			c-3.5-2.3-7.4-3.9-11.6-4.6c-8-1.3-6.8-4.5-16.6-4.5H93.7c-9.3,0-11.9,8.3-17.9,12.8c-1.2,1-3,0.7-4-0.5c-0.4-0.5-0.6-1.2-0.6-1.9
			c0.9-14.9,4.5-43.1,14.9-43.1h25.2c6,0,6.8,1,10.8,2.1c1.1,0.3,1.9,1.2,2,2.4l2.2,17.7c0.1,0.4,0.2,0.8,0.4,1.1l1,1.7
			c0.8,1.3,2.5,1.8,3.8,1c0.1-0.1,0.2-0.1,0.3-0.2c21.7-16.9,6.6-37.8,62.7-38.3c1.3,0,2.5,0.9,2.8,2.3l10.3,50.7
			c0.3,1.3-0.4,2.6-1.6,3.1c-5.9,2.6-11.6,4.5-11.6,11.9v4.7c0,1.6,1.3,2.8,2.8,2.8h4.8c7.9,0,15.1-6.5,15.1,5v5
			C217.1,410,190.5,432.6,175.8,443.8"/>
		<path class="st1" d="M661.4,159.4c-0.4-3.7-1.8-7.1-4.1-10c-2.3-2.9-5.9-4.4-9.6-4.2c-3.8,0.1-7.4,1.9-9.8,4.9
			c-2.5,2.9-4,6.5-4.4,10.3L661.4,159.4z M673.8,181.6c-8.4,11.4-16.8,17.2-25.2,17.5c-6.4,0.2-11.9-2.4-16.5-7.8
			c-4.2-4.8-6.6-10.9-6.8-17.3c-0.3-7.8,2.1-15.4,6.7-21.7c5.1-7.1,11.5-10.7,19.2-11c5.5-0.4,10.8,1.8,14.4,5.9
			c3.4,3.9,5.3,8.8,5.8,14.8l-38.3,1.3c0,1.5,0,2.7,0,3.4c0.1,5.9,2,11.6,5.4,16.4c3.8,5.2,8.8,7.7,14.8,7.5
			c6.8-0.2,13.6-4.6,20.4-13L673.8,181.6z M620.8,193.7l-16.2,7.1l-2.9,0.1l-0.7-19.7c-3,4.6-6.4,8.9-10.1,12.9
			c-4.7,4.8-9.4,7.3-14,7.4c-6.5,0.2-10-4.3-10.3-13.6l-1.1-32.4c-0.1-3.4-2-5.1-5.7-5c-1.1,0.1-2.2,0.2-3.3,0.5l-0.1-2.8l20.2-4.3
			l0.1,2.3c-1.6,0.5-2.4,1.9-2.3,4.2l1.3,36.7c0.2,5.2,2.2,7.7,6.2,7.6c6-0.2,10.9-4.8,14.8-13.8c3-6.7,4.5-14,4.4-21.3
			c-0.2-7-2.5-10.5-6.7-10.3c-1.1,0.1-2.3,0.3-3.4,0.6l-0.1-2.8l20.5-4.3l0.1,2.3c-1.7,0.3-2.6,1.8-2.5,4.2l1.3,38.1
			c0.1,3.7,1.5,5.5,4.3,5.4c2.2-0.2,4.3-0.9,6.2-2L620.8,193.7z M536.8,163.7c-0.1-2.6-0.4-5.2-1-7.7c-5.4-2.9-10.5-4.3-15.2-4.1
			c-5.7,0.2-10,3.2-13,9c-2.5,5.1-3.6,10.8-3.2,16.4c0,4.3,1.1,8.5,3,12.3c2.4,4.4,5.8,6.5,10.1,6.4c6.2-0.2,11.2-4.3,15-12.2
			C535.5,177.5,537,170.6,536.8,163.7 M556.4,225.9l-27.2,0.9l-0.1-2.9c3.3-0.2,5.6-1,6.9-2.4s1.9-3.9,1.8-7.2l-1-29.6
			c-3.4,4.3-7.1,8.4-11,12.3c-5,4.4-9.8,6.7-14.4,6.9c-5,0.2-9.1-2.1-12.1-7c-2.6-4.3-4-9.2-4.1-14.2c-0.2-6.4,1.4-12.7,4.6-18.2
			c3.4-6.2,7.7-10.7,13.1-13.4c4.5-2.3,10.1-3.5,16.8-3.7l5.7-0.1c5.5-0.1,8.7-1.5,9.8-4l3.1-0.1c-2.3,4.4-3.4,10.4-3.1,17.8
			l1.7,53.1c0.1,3.3,0.9,5.7,2.3,7.1s3.8,2,7.1,1.9L556.4,225.9z M481.7,179.6c-0.2-4.8-1.4-9.4-3.7-13.6c-2.1-4.3-5.3-7.9-9.3-10.5
			c-2.9-1.9-6.2-2.8-9.7-2.8c-5.5,0.2-9.7,2.4-12.5,6.6c-2.5,3.7-3.6,8.4-3.4,14.1c0.2,6.6,2.6,13,6.7,18.1
			c4.6,5.9,10.2,8.8,16.6,8.6c4.8-0.1,9.3-2.6,11.7-6.8C480.7,189.2,481.9,184.4,481.7,179.6 M489.5,172.8
			c0.4,8.2-2.4,16.2-7.8,22.4c-5.7,6.7-12.7,10.2-21.1,10.5c-7.6,0.3-13.6-2-18.2-6.7c-4.4-4.5-6.7-10.6-7-18.2
			c-0.4-8.1,2.4-16.1,7.7-22.3c5.7-6.8,12.6-10.3,20.8-10.6c7.6-0.3,13.8,1.9,18.4,6.6C486.8,159,489.2,165.1,489.5,172.8
			 M431.4,148.9l-4.2,0.1c-0.5-11.3-6.7-16.8-18.6-16.4l-3.2,0.1l2.1,60.7c0.2,6.1,3.3,9.2,9.3,9.1l0.1,2.9l-29,1l-0.1-2.9
			c3.5-0.2,5.9-0.9,7.1-2.3c1.2-1.4,1.8-3.9,1.6-7.4l-2.1-60.7l-4.1,0.1c-10.9,0.4-16.4,6.2-16.3,17.6l-4.2,0.1l-0.8-22.5l2.6-0.1
			c0.6,1.8,1.4,2.6,2.4,2.6l51.8-1.8c1.4-0.1,2-1,1.9-2.7l2.8-0.1L431.4,148.9z M325.6,171.2c-0.4-3.7-1.8-7.1-4.1-10
			c-2.4-2.9-5.9-4.4-9.6-4.2c-3.8,0.1-7.4,1.9-9.8,4.9c-2.5,2.9-4,6.5-4.4,10.3L325.6,171.2z M337.9,193.3
			c-8.4,11.4-16.8,17.2-25.2,17.5c-6.4,0.2-11.9-2.4-16.5-7.8c-4.2-4.8-6.6-10.9-6.8-17.3c-0.3-7.8,2.1-15.4,6.7-21.6
			c5.1-7.1,11.5-10.7,19.1-11c5.5-0.4,10.8,1.8,14.4,5.9c3.4,3.9,5.3,8.8,5.7,14.8l-38.2,1.3c0,1.5,0,2.7,0,3.4
			c0.1,5.9,2,11.6,5.4,16.4c3.8,5.2,8.7,7.7,14.8,7.5c6.8-0.2,13.6-4.6,20.4-13L337.9,193.3z M268,172.8c-0.1-2.4-0.4-4.8-1-7.1
			c-5.7-4.3-11-6.4-16.1-6.3c-5.5,0.2-9.7,3.4-12.6,9.6c-2.4,5.2-3.5,10.9-3.2,16.6c0.1,4.5,1.4,9,3.6,12.9
			c2.7,4.6,6.2,6.8,10.6,6.7c5.8-0.2,10.6-4.3,14.4-12.4C266.7,186.5,268.1,179.7,268,172.8 M286.4,205.7l-14.9,6.5l-2.8,0.1
			l-0.7-19.2c-3.1,4.4-6.4,8.6-10,12.6c-4.7,4.8-9.3,7.3-13.8,7.4c-5.4,0.2-9.9-2.3-13.3-7.3c-3-4.5-4.7-9.8-4.8-15.2
			c-0.3-8,2.3-15.7,7.8-23.2c5.8-8,12.7-12.1,20.5-12.4c3.4-0.1,7.5,0.8,12.2,2.7l-0.6-16c-0.1-3.4-1.5-5-4-4.9
			c-1.8,0.2-3.5,0.6-5,1.4l-0.2-3.2l20.2-8.6l0.1,2.4c-1.6,0.7-2.6,2.4-2.4,4.1l2.3,66.3c0.1,3.3,1.6,4.9,4.4,4.8
			c1.6-0.2,3.2-0.7,4.6-1.5L286.4,205.7z"/>
		<path class="st1" d="M606.2,262.5c-0.4-3.7-1.8-7.2-4.2-10.2c-2.4-2.9-6-4.5-9.8-4.3c-3.9,0.1-7.6,2-10,5c-2.5,3-4.1,6.6-4.5,10.5
			L606.2,262.5z M618.7,285.1c-8.6,11.6-17.1,17.5-25.7,17.8c-6.5,0.2-12.1-2.4-16.8-7.9c-4.3-4.9-6.8-11.1-6.9-17.6
			c-0.3-7.9,2.1-15.7,6.8-22c5.2-7.2,11.7-10.9,19.5-11.2c5.5-0.4,11,1.8,14.7,6c3.5,4,5.4,9,5.8,15.1l-38.9,1.4c0,1.6,0,2.7,0,3.4
			c0.1,6,2,11.8,5.5,16.7c3.9,5.3,8.9,7.9,15.1,7.6c6.9-0.2,13.8-4.7,20.7-13.2L618.7,285.1z M564.8,297.4l-16.4,7.2l-3,0.1l-0.7-20
			c-3,4.7-6.5,9.1-10.2,13.2c-4.8,4.9-9.6,7.4-14.3,7.6c-6.7,0.2-10.1-4.4-10.5-13.8l-1.1-33c-0.1-3.5-2-5.2-5.8-5.1
			c-1.1,0.1-2.3,0.2-3.4,0.5l-0.1-2.8l20.6-4.4l0.1,2.4c-1.7,0.6-2.5,2-2.4,4.3l1.3,37.4c0.2,5.3,2.2,7.8,6.2,7.7
			c6.1-0.2,11.1-4.9,15-14c3-6.8,4.6-14.2,4.4-21.7c-0.2-7.2-2.5-10.7-6.8-10.5c-1.2,0.1-2.3,0.3-3.4,0.6l-0.1-2.8l20.9-4.4l0.1,2.3
			c-1.8,0.4-2.6,1.8-2.5,4.3l1.4,38.7c0.1,3.8,1.6,5.6,4.4,5.5c2.2-0.2,4.4-0.9,6.3-2L564.8,297.4z M479.2,266.9
			c-0.1-2.6-0.5-5.3-1-7.9c-5.5-3-10.6-4.4-15.5-4.2c-5.8,0.2-10.2,3.3-13.2,9.2c-2.5,5.2-3.6,11-3.3,16.7c0,4.4,1.1,8.6,3.1,12.5
			c2.4,4.5,5.9,6.6,10.3,6.5c6.3-0.2,11.4-4.4,15.2-12.4C478,280.9,479.5,273.9,479.2,266.9 M499.2,330.2l-27.6,1l-0.1-2.9
			c3.3-0.2,5.7-1,7-2.5s1.9-4,1.8-7.4l-1-30.2c-3.5,4.4-7.3,8.6-11.3,12.5c-5,4.5-9.9,6.9-14.7,7c-5.1,0.2-9.3-2.2-12.3-7.1
			c-2.6-4.4-4.1-9.3-4.1-14.4c-0.2-6.5,1.5-12.9,4.7-18.5c3.4-6.3,7.9-10.9,13.3-13.7c4.6-2.3,10.3-3.6,17.1-3.8l5.8-0.1
			c5.5-0.2,8.9-1.5,10-4.1l3.2-0.1c-2.4,4.5-3.4,10.5-3.2,18.1l1.9,54.1c0.1,3.4,0.9,5.8,2.3,7.2s3.9,2.1,7.2,2L499.2,330.2z
			 M423.2,283c-0.2-4.9-1.4-9.6-3.7-13.9c-2.1-4.3-5.4-8-9.5-10.6c-2.9-1.9-6.3-2.9-9.8-2.9c-5.6,0.2-9.8,2.4-12.7,6.7
			c-2.5,3.8-3.7,8.6-3.5,14.4c0.2,6.7,2.6,13.2,6.9,18.4c4.7,6,10.4,8.9,16.9,8.7c4.9-0.1,9.4-2.7,11.9-6.9
			C422.2,292.8,423.4,288,423.2,283 M431.1,276.1c0.4,8.4-2.5,16.5-8,22.8c-5.8,6.8-12.9,10.4-21.5,10.6c-7.7,0.3-13.9-2-18.5-6.8
			c-4.5-4.6-6.9-10.8-7.1-18.5c-0.4-8.3,2.4-16.4,7.9-22.7c5.8-6.9,12.8-10.5,21.2-10.8c7.8-0.3,14,2,18.7,6.7
			C428.4,262.1,430.8,268.3,431.1,276.1 M372,251.8l-4.3,0.1c-0.5-11.5-6.8-17.1-18.9-16.7l-3.2,0.1l2.2,61.8
			c0.2,6.2,3.4,9.3,9.5,9.3l0.1,2.9l-29.5,1l-0.1-2.9c3.6-0.2,6-1,7.2-2.4s1.8-3.9,1.7-7.5l-2.2-61.8l-4.2,0.1
			c-11.2,0.4-16.7,6.4-16.6,17.9l-4.2,0.1l-0.8-22.9l2.7-0.1c0.6,1.8,1.4,2.7,2.5,2.6l52.7-1.9c1.4,0,2-1,2-2.8l2.9-0.1L372,251.8z
			 M278.9,259.6c-2.2,0.1-4.3,1-5.8,2.7c-1.7,2-3.4,5.3-5,10.2l-18.8,54.4c-2.9,8.3-8.7,13.1-17.5,14.1l-10.2-11.2l3.2-2.7
			c3.3,3.8,6.9,5.7,10.8,5.5c4.2-0.1,7.4-2.4,9.4-6.8c0.6-1.4,1.9-4.7,3.7-9.9l0.9-2.5l-17.9-40.4c-1.1-2.7-2.5-5.3-4.2-7.7
			c-1.8-2.4-4.6-3.7-7.5-3.7l-0.1-2.9l19.6-0.7l0.1,2.9c-1.5,0.1-2.3,0.6-2.2,1.5c0,0.5,0.2,1,0.4,1.5l16.3,36.7l5.4-15.9
			c2.4-7.2,3.5-13.2,3.4-17.8c-0.2-4.5-3.1-6.7-8.9-6.5l-0.1-2.9l25.2-0.9L278.9,259.6z"/>
	</g>
</g>
</svg>
