<?xml version="1.0" encoding="utf-8"?>
<!-- Generator: Adobe Illustrator 25.2.3, SVG Export Plug-In . SVG Version: 6.00 Build 0)  -->
<svg version="1.1" id="Capa_1" xmlns="http://www.w3.org/2000/svg" xmlns:xlink="http://www.w3.org/1999/xlink" x="0px" y="0px"
	 viewBox="0 0 386.1 406.7" style="enable-background:new 0 0 386.1 406.7;" xml:space="preserve">
<style type="text/css">
	.st0{fill:#FFFFFF;}
</style>
<g>
	<path class="st0" d="M191.9,368.4c0.5,0.6,1,0.9,1.6,1.2c5.1,2.5,10.3,4.9,15.4,7.4c2,1,4.1,1.2,6.3,0.6c3.6-1,7.2-1.9,10.8-2.9
		c1.7-0.5,3.3-0.4,4.9,0.4c1.9,0.9,1.9,0.8,1.6,2.9c-0.1,0.3-0.1,0.6-0.2,0.9c0.5,0.3,1,0.2,1.6,0.2c2.2,0,4.4,0,6.6,0
		c0.7,0,1.5,0.1,2.1,0.6c0,0.9-0.7,1.2-1.3,1.5c-3.6,1.9-7.3,3.9-10.9,5.8c-0.8,0.4-1.2,0.8-1,1.8c0.2,0.7,0.3,1.4,0.1,2.2
		c-1.4-0.1-2.8-0.3-4.4-0.4c0.1,1.6,0.8,3,1.1,4.8c-2.8-1.1-5.5-1.7-7-4.5c-0.7-1.4-2.1-2.2-3.6-2.6c-3.6-0.9-7.2-1.8-10.8-2.7
		c-7.8-2-15.6-4.1-23.4-6.1c-0.1,0-0.2-0.1-0.3-0.1c-2.4-0.6-2.9-0.4-3.6,2c-0.5,1.5-1,3-1.5,4.4c-0.2,0.6-0.5,0.9-1.1,0.7
		c-0.8-0.2-1.6-0.2-2.3-0.3c-0.4-0.1-0.9-0.2-1.1,0.4c0.2,0.4,0.6,0.4,0.8,0.6c1.1,0.7,1.7,1.7,1.8,3c0.2,1.6,0.2,3.1-0.5,4.6
		c-0.6,1.2-0.8,2.6-0.8,3.9c0,2.2,0,4.3,0,6.7c-1.9-0.8-3.7-1.5-5.2-2.6c-1.1-0.8-1.7-1.9-1.9-3.1c-0.1-0.7-0.2-1.3-0.4-2
		c-0.6-1.9-1.9-2.8-3.9-2.8c-1.4,0-2.6-0.4-3.8-0.8c-0.5-0.2-0.7-0.4-0.6-0.9c0.1-0.4,0.1-0.8,0.2-1.2c0.3-1.3,0.8-1.7,2.2-1.7
		c0.4,0,0.7,0.1,1.1,0.1c1,0,1.4-0.3,1.1-1.3c-0.7-3.2-2.3-5.5-5.4-6.2c-0.9-0.2-1.9-0.4-2.7-0.7c-1.1-0.4-1.3-0.9-1-2
		c0-0.2,0.1-0.3,0.1-0.5c0.8-2.4,0.8-2.3,3.3-1.9c0.6,0.1,1.2,0.2,1.8,0.3c0.3-0.3,0.2-0.6,0.1-0.9c-0.6-2.3-1.3-4.6-1.9-6.9
		c-0.3-1.2-0.9-1.9-2-2.4c-3.6-1.7-7.1-3.6-10.7-5.3c-6.1-2.9-11.4-7-15.7-12.2c-0.4-0.4-0.7-0.9-1-1.4c-0.8-1.4-0.5-2.2,1-2.8
		c1.3-0.5,2.8-0.6,4.2-0.7c3.9-0.3,7.6,0.4,11.2,2c8.2,3.9,16.5,7.3,24.9,10.9c0.6,0.3,1.3,0.5,1.9,0.7c1,0.2,1.6-0.1,1.9-1.2
		c0.2-0.7,0.2-1.3,0.3-2c0.2-1.4,0.9-1.9,2.3-1.7c0.5,0.1,1,0.2,1.5,0.5c2.8,1.8,5.8,2,8.9,1.3c3-0.7,5.8-2.1,8.8-2.8
		c0.4-0.1,0.6-0.4,0.7-0.8c0.2-0.5,0.4-0.9,0.8-1.3c0.9-1.1,1.9-1.5,3.4-1c3,1.1,6.1,0.7,9.1-0.2c7.2-2.2,14.5-3.5,21.9-5
		c1.1-0.2,2.1-0.1,3.1,0.3c0.2,0.1,0.5,0.2,0.5,0.5c0,0.4-0.2,0.6-0.5,0.7c-0.4,0.2-0.8,0.3-1.2,0.5c-5.9,2.5-11.9,5-17.8,7.4
		c-1.1,0.5-2,1.1-2.5,2.2c-0.5,1.1-1.3,1.7-2.3,2.2c-1.5,0.7-2.9,1.5-4.3,2.3c-2.1,1.1-4.2,2-6.6,2.4c-1.4,0.2-2.4,0.7-3,2.1
		C193.5,366.4,192.6,367.3,191.9,368.4z"/>
	<path class="st0" d="M22.3,307.9c-1.4,0.2-2.7,0.4-4.1,0.5c-1.3,0.1-1.3,0.1-1.4-1.2c-0.2-1-0.3-2.1-0.3-3.1c0-1.4,0.5-2.1,1.8-2.6
		c1.3-0.5,2.7-0.7,4.1-0.8c1.3,0,2.2-0.7,2.5-1.9c0.9-3.8,1.8-7.6,2.7-11.5c-0.8-0.1-1.3,0.2-1.9,0.4c-5.8,1.6-11.6,3.1-17.4,4.7
		c-0.8,0.2-1.5,0.4-2.3,0.5c-1.6,0.2-2.4-0.5-2.4-2.1c0.1-2,0.2-4,0.4-5.9c0.3-3.8,0.7-7.6,0.6-11.4c-0.1-2,0.3-2.4,2.4-2.7
		c8.7-1.3,17.4-2.8,26-4.3c3-0.5,5.9-0.7,8.9,0.2c0.9,0.3,1.8,0.6,2.6,1c2.9,1.4,4.2,3.7,4.4,6.9c0.2,3.5-0.5,6.8-1.4,10.2
		c-3.3,12.3-6.4,24.6-9.1,37c-0.8,3.6-1.4,7.3-2.1,10.9c-0.1,0.5-0.2,0.9-0.3,1.4c-0.2,1.2-1,1.9-2.2,2.2c-1.3,0.4-2.7,0.3-4.1,0.5
		c-2.8,0.3-5.6,0.5-8.5,0.7c-3.3,0.3-3.9-1-3.4-3.8c1.5-8.1,3-16.3,4.5-24.5C22.4,308.7,22.6,308.3,22.3,307.9z"/>
	<path class="st0" d="M44.6,371.2c-0.3,0.2-0.2,0.5-0.2,0.7c0.1,4.8-0.3,9.5-0.3,14.2c0,0.3,0,0.5,0,0.8c-0.1,1.1-0.6,1.6-1.7,1.7
		c-1.6,0.1-3.1,0.2-4.7,0c-1.5-0.1-2.2-0.7-2.3-2.2c-0.1-1-0.1-2,0-3c0.5-6.8,0.9-13.6,1.4-20.5c0.1-2,0.3-4.1,0.4-6.1
		c0-0.6,0.1-1.1,0.3-1.7c0.3-0.9,0.9-1.4,1.9-1.4c1.5,0,3,0,4.6,0c1.7,0,2.9,0.8,3.7,2.3c0.6,1.2,1.1,2.5,1.6,3.7
		c0.8,1.9,1.5,3.9,2.2,5.8c0.2,0.4,0.2,0.9,0.9,1.2c0.1-1.7,0.3-3.4,0.4-5c0.2-2.3,0.3-4.7,0.4-7c0-0.7,0.3-1.1,1.1-1.1
		c1.6,0.1,3.1,0,4.7,0c1.6,0,2.2,0.7,2.2,2.4c0,0.9-0.2,1.9-0.2,2.8c-0.5,8.3-0.5,16.6-0.7,24.9c0,0.8,0,1.6,0,2.3
		c-0.1,1.4-0.6,2-2.1,2.1c-1.4,0.1-2.8,0.2-4.2,0.1c-1.4-0.1-2.4-0.8-2.9-2c-0.5-1.1-1-2.2-1.4-3.3c-1.4-3.5-2.7-7-4.1-10.5
		C45.2,372.1,45.1,371.5,44.6,371.2z"/>
	<path class="st0" d="M102.4,360.5c-0.3,0.4-0.5,0.6-0.7,0.9c-1.4,1.8-1.4,2.5-0.3,4.4c0.5,0.9,1.2,1.6,2,2.2
		c0.8,0.5,1.6,1.1,2.4,1.6c0.9,0.6,1.7,1.2,2.5,1.9c3.4,3.1,4.2,6.7,2.6,10.9c-1.1,2.9-3.2,4.9-6.2,5.8c-3.1,0.9-6.1,0.8-9.1-0.1
		c-1.7-0.5-3.2-1.2-4.8-2c-1.2-0.7-1.6-1.7-1-3c0.2-0.6,0.5-1.1,0.8-1.7c0.9-1.8,1.5-2,3.4-1.3c0.9,0.3,1.8,0.7,2.7,1.2
		c1.3,0.6,2.6,0.5,4,0.2c0.7-0.1,1-0.6,1.1-1.3c0-1.4-0.3-2.7-1.5-3.6c-0.8-0.7-1.8-1.3-2.8-1.8c-1.2-0.7-2.5-1.4-3.5-2.4
		c-2.4-2.2-3.5-4.9-3-8.1c1.1-7.5,8.4-12.2,15.7-9.9c2.8,0.9,4.5,2.7,5,5.6c0.2,1.5,0.2,3,0.1,4.5c-0.1,1.1-0.4,1.4-1.6,1.6
		c-1.7,0.2-3.4,0.1-5,0.1c-0.7,0-1.4-0.4-1.3-1.3C104,363.1,103.1,362,102.4,360.5z"/>
	<path class="st0" d="M40.7,350.3c-0.9-3.9,1.2-7.5,4.9-8.4c0.7-0.2,1.3-0.2,2,0.2c1.2,0.7,2.5,1.3,3.8,1.9c1.3,0.6,1.6,0.6,2.5-0.5
		c0.9-1,3.5-1.7,4.8-1.3c0.6,0.2,0.9,0.6,0.9,1.1c0,0.5,0,1-0.2,1.5c-0.4,1.4-1.2,2.6-2,3.7c-1.4,1.8-3.2,2.3-5.3,1.8
		c-1.2-0.3-2.4-0.8-3.5-1.3c-1.2-0.6-2.2-0.5-3.1,0.5c-0.5,0.6-1.2,0.8-1.9,0.9C42.6,350.4,41.6,350.3,40.7,350.3z"/>
	<path class="st0" d="M214.8,307.5c0.3-1.4,0.6-2.8,0.8-4.3c0.5-3.6,0.6-7.2-0.6-10.7c-2.6-7.6-8.2-12.2-15.8-14.4
		c-5.5-1.6-11-0.7-16.3,1.4c-2.2,0.9-4.3,2-6.3,3.2c-0.4,0.3-0.9,0.5-1.4,0.8c-0.1-0.5,0.2-0.8,0.4-1c0.8-0.9,1.7-1.7,2.7-2.3
		c7.2-3.9,14.8-5.6,22.8-3.1c9.2,2.9,14.8,9.2,16.4,18.7c0.6,3.5,0.1,6.9-1.5,10.1c-0.2,0.4-0.5,0.8-0.7,1.2
		C215.2,307.3,215.1,307.5,214.8,307.5z"/>
	<path class="st0" d="M115.3,253.4c0.3-2.5,0.6-4.8,0.7-7c0.3-5.4-1-10.3-4.6-14.4c-5.1-5.7-11.5-8.7-19.4-8.4
		c-3.2,0.1-6.2,1-9.1,2.3c-2.7,1.1-5.2,2.4-7.5,4.2c-0.3-0.5,0.1-0.7,0.3-1c0.9-1.2,2-2.1,3.3-2.9c5.4-3,11.1-4.7,17.3-4
		c10.1,1.1,18.7,7.8,21,17.4c0.9,3.7,0.9,7.3-0.4,10.9C116.6,251.5,116.2,252.4,115.3,253.4z"/>
	<path class="st0" d="M4.6,177.4c1.8-0.7,2.2-2.1,2.4-3.7c0.3-2.7,0.8-5.5,1.4-8.2c0.2-0.9,0.5-1.6,1.4-2.1c0.6,0.8,0.7,1.7,0.5,2.7
		c-0.5,2.7-0.9,5.4-1.4,8.2c-0.2,1.1-0.2,1.1,0.9,1.6c0.8,0.3,1.2,0.9,1.2,1.7c0,0.9-0.1,1.8-0.2,2.9C8.7,179.4,6.8,178.4,4.6,177.4
		z"/>
	<path class="st0" d="M253.8,377.4c-0.5-0.2-1-0.5-1.2-1c-0.2-0.5,0.2-0.8,0.5-1c0.3-0.2,0.6-0.3,0.9-0.4c3.2-1.2,6.5-2.4,9.7-3.6
		c1.1-0.4,1.7-0.3,1.9,0.3c0.2,0.6-0.1,1-1.2,1.5c-3.3,1.3-6.5,2.6-9.8,3.9C254.3,377.2,254,377.3,253.8,377.4z"/>
	<path class="st0" d="M16.7,141.3c0,0.2-0.1,0.4-0.2,0.7c-1,3.1-1.9,6.3-2.9,9.4c0,0.1-0.1,0.3-0.1,0.4c-0.3,0.7-1.2,1.3-1.6,1
		c-0.5-0.4-0.7-1-0.5-1.7c1.1-3.4,2.2-6.7,3.2-10.1c0-0.1,0.1-0.2,0.1-0.3c0.3-0.5,0.8-1,1.3-0.8C16.6,140,16.8,140.7,16.7,141.3z"
		/>
	<path class="st0" d="M70.3,60.3c0.1,0.4-0.1,0.8-0.5,1.1c-2.7,2.6-5.5,5.2-8.2,7.7c-0.4,0.4-0.9,0.6-1.4,0.1
		c-0.5-0.5-0.4-1-0.1-1.5c0.1-0.2,0.4-0.4,0.5-0.6c2.5-2.3,4.9-4.7,7.4-7c0.3-0.3,0.7-0.6,1.2-0.7C70.1,59.4,70.3,59.6,70.3,60.3z"
		/>
	<path class="st0" d="M316.2,340.5c-0.1-1,0.3-1.7,1-2.3c2.3-2.1,4.6-4.3,6.9-6.4c0.5-0.4,1-0.7,1.7-0.8c0.4,0,0.6,0.1,0.8,0.4
		c0.2,0.3,0.2,0.6,0,0.9c-0.3,0.4-0.6,0.7-0.9,1.1c-2.2,2.1-4.4,4.1-6.6,6.2C318.2,340.2,317.3,340.6,316.2,340.5z"/>
	<path class="st0" d="M276.4,33.2c-0.8,0.5-1.6,0.5-2.3,0.1c-3-1.4-6.1-2.8-9.1-4.1c-0.4-0.2-0.8-0.3-1-0.7c-0.2-0.3-0.5-0.6-0.2-1
		c0.3-0.4,0.6-0.7,1.2-0.5c0.5,0.2,1,0.4,1.5,0.6c2.9,1.3,5.7,2.6,8.5,3.9C275.7,31.8,276.2,32.2,276.4,33.2z"/>
	<path class="st0" d="M334.2,77c-0.1,0.3,0.2,0.8-0.4,1c-0.5,0.2-0.8-0.2-1.1-0.5c-2.5-2.7-5.1-5.3-7.6-8c-0.6-0.6-0.8-1.7-0.5-2
		c0.4-0.3,1.3,0,1.9,0.6c2.4,2.4,4.7,4.9,7,7.4C334.1,75.9,334.3,76.3,334.2,77z"/>
	<path class="st0" d="M199.1,14.9c-1.5,0-3,0-4.5,0c-0.4,0-0.8,0-1.2-0.1c-0.6-0.1-1.2-0.4-1.1-1c0-0.5,0.7-0.8,1.2-0.8
		c1.8-0.1,3.6-0.2,5.5,0.1c1.6,0.3,3.1,0,4.7,0.1c0.8,0,1.4,0.2,2,0.8c0.3,0.3,0.3,0.6-0.1,0.9c-0.5,0.3-1,0.5-1.6,0.5
		c-1.6,0-3.1,0-4.7,0C199.1,15.1,199.1,15,199.1,14.9z"/>
	<path class="st0" d="M44.2,88c-0.6-0.9-0.5-1.6,0.2-2.5c2.2-2.6,4.3-5.2,6.4-7.9c0.7-0.8,1.6-1.2,2-0.8c0.4,0.3,0.2,1.4-0.4,2.1
		c-2.2,2.7-4.4,5.3-6.5,8C45.4,87.4,45,87.8,44.2,88z"/>
	<path class="st0" d="M30.6,107.7c-0.4-0.8-0.3-1.4,0.1-2.1c1.8-2.9,3.7-5.8,5.5-8.7c0.1-0.2,0.3-0.4,0.5-0.6
		c0.5-0.3,0.9-0.7,1.6-0.3c0.7,0.5,0.1,0.9-0.1,1.3c-1.9,3.1-3.8,6.1-5.6,9.2C32.1,107.3,31.4,107.6,30.6,107.7z"/>
	<path class="st0" d="M371.3,139.3c-0.2,0.5-0.4,1-0.8,1.1c-0.5,0.2-0.9-0.2-1.1-0.6c-0.1-0.2-0.2-0.5-0.3-0.7
		c-1.2-3.2-2.5-6.4-3.7-9.6c-0.4-1-0.3-1.7,0.2-1.9c0.5-0.2,1.1,0.2,1.5,1.2c1.3,3.2,2.6,6.5,3.9,9.7
		C371.1,138.8,371.2,139.1,371.3,139.3z"/>
	<path class="st0" d="M366.9,271.5c-0.1,0.2-0.2,0.6-0.4,0.9c-1.4,3.2-2.9,6.4-4.3,9.7c0,0.1-0.1,0.2-0.1,0.3c-0.2,0.5-0.6,1-1.2,1
		c-0.3,0-0.7-1.2-0.6-1.8c0.1-0.2,0.2-0.5,0.3-0.7c1.4-3.1,2.8-6.1,4.2-9.2c0.2-0.3,0.3-0.7,0.6-0.9c0.3-0.3,0.6-0.4,1-0.2
		C366.8,270.7,366.9,271,366.9,271.5z"/>
	<path class="st0" d="M287.7,360.9c-0.1,0.9-0.5,1.4-1.3,1.8c-2.8,1.5-5.7,3.1-8.5,4.6c-0.7,0.4-1.4,0.4-2.1,0.3
		c-0.3,0-0.5-0.1-0.6-0.4c-0.1-0.3-0.1-0.6,0.2-0.8c0.2-0.1,0.4-0.3,0.7-0.4c3.1-1.8,6.2-3.4,9.4-5
		C286.2,360.6,286.9,360.4,287.7,360.9z"/>
	<path class="st0" d="M133.4,23.7c0,0.7-0.5,0.9-1,1.1c-1.9,0.7-3.8,1.5-5.7,2.2c-1.6,0.6-3.1,1.2-4.7,1.8c-0.5,0.2-0.9,0.3-1.3-0.1
		c-0.5-0.5-0.5-1,0-1.4c0.2-0.1,0.5-0.2,0.7-0.3c3.4-1.3,6.7-2.6,10.1-3.9c0.5-0.2,1-0.4,1.5,0C133.2,23.3,133.4,23.5,133.4,23.7z"
		/>
	<path class="st0" d="M375.9,235.5c0.6-3.5,1.2-7,1.8-10.5c0.1-0.8,0.8-1.5,1.3-1.4c0.4,0.1,0.8,1.1,0.7,1.8
		c-0.6,3.3-1.1,6.7-1.7,10c0,0.2,0,0.3-0.1,0.5c-0.2,0.7-0.8,1.4-1.2,1.2C376.1,236.7,375.8,236.2,375.9,235.5z"/>
	<path class="st0" d="M230.2,17.6c-0.7,0.6-1.3,0.8-2.1,0.6c-3.2-0.6-6.5-1.1-9.7-1.7c-0.8-0.1-1.5-0.5-1.7-1.3
		c0.6-0.6,1.3-0.8,2.1-0.6c3.2,0.6,6.5,1.1,9.8,1.6C229.4,16.4,229.8,16.8,230.2,17.6z"/>
	<path class="st0" d="M156.8,17.3c-0.5,0.9-1.2,1.4-2.1,1.6c-2.8,0.6-5.6,1.3-8.4,2c-0.8,0.2-1.7,0.2-2.5,0c-0.6-0.1-0.7-0.5-0.4-1
		c0.3-0.4,0.8-0.6,1.4-0.7c3.3-0.8,6.5-1.5,9.8-2.3C155.3,16.7,156.1,16.9,156.8,17.3z"/>
	<path class="st0" d="M380.9,205.9c0,1.8,0,3.5,0,5.3c0,1-0.5,1.7-1,1.8c-0.5,0-0.9-0.8-0.9-1.8c0.1-3.3,0.2-6.7,0.3-10
		c0-1.2,0.6-2.3,1.1-2.1c0.9,0.4,0.9,1.3,0.9,2.1c0,1.6,0,3.1,0,4.7C381.2,205.9,381.1,205.9,380.9,205.9z"/>
	<path class="st0" d="M20,130.2c-0.7-0.7-0.7-1.3-0.4-2.2c1.5-3.2,2.9-6.4,4.3-9.5c0.1-0.2,0.2-0.4,0.3-0.6c0.3-0.6,1-0.8,1.4-0.6
		c0.4,0.2,0.5,0.8,0.3,1.4c-1.1,2.3-2.1,4.7-3.1,7c-0.4,1-0.9,2-1.4,3C21.1,129.4,20.7,129.9,20,130.2z"/>
	<path class="st0" d="M333.3,323.3c-0.3-0.9,0-1.7,0.6-2.3c2-2.4,4.1-4.9,6.1-7.4c0.4-0.5,0.8-0.9,1.3-1.1c0.4-0.1,0.7,0,1,0.3
		c0.2,0.3,0.2,0.6,0,0.8c-0.2,0.3-0.4,0.6-0.6,0.9c-2,2.5-4,4.9-6,7.4C335,322.8,334.4,323.3,333.3,323.3z"/>
	<path class="st0" d="M181.3,14.4c-0.7,0.6-1.3,1-2.2,1c-3.2,0.3-6.5,0.6-9.7,0.9c-0.3,0-0.5,0-0.8,0c-0.4-0.1-1.1,0.2-1.3-0.4
		c-0.2-0.7,0.5-0.8,0.9-1.1c0.3-0.3,0.7-0.4,1.2-0.4c3.2-0.3,6.3-0.6,9.5-0.9C179.9,13.4,180.6,13.8,181.3,14.4z"/>
	<path class="st0" d="M362,117.1c-0.1,0.5-0.3,0.8-0.7,0.9c-0.4,0.1-0.7,0.1-1-0.2c-0.2-0.2-0.3-0.5-0.5-0.8
		c-1.7-3.1-3.4-6.2-5.1-9.4c0,0-0.1-0.1-0.1-0.1c-0.4-0.9-0.4-1.4,0.2-1.6c0.8-0.2,1.1,0.2,1.5,0.8c1,1.9,2.1,3.8,3.2,5.8
		c0.7,1.3,1.4,2.6,2.1,3.9C361.7,116.6,361.9,116.9,362,117.1z"/>
	<path class="st0" d="M306.2,52c1-0.3,1.8,0,2.5,0.6c2.4,2,4.9,3.9,7.3,5.9c0.5,0.4,0.8,0.8,1.1,1.3c0.1,0.2,0.2,0.5,0.1,0.7
		c-0.2,0.2-0.4,0.3-0.7,0.2c-0.6-0.1-1.2-0.3-1.7-0.7c-2.6-2.1-5.1-4.2-7.6-6.2C306.7,53.4,306.4,52.8,306.2,52z"/>
	<path class="st0" d="M341.4,85.6c0.5,0,0.8,0.3,1.1,0.6c2.2,3,4.5,6.1,6.7,9.1c0.4,0.5,0.5,1.1-0.1,1.5c-0.6,0.4-1.1,0.1-1.5-0.4
		c-0.2-0.2-0.4-0.5-0.6-0.8c-1.9-2.7-3.8-5.4-5.7-8c-0.2-0.3-0.5-0.6-0.6-1.1C340.7,86,340.9,85.7,341.4,85.6z"/>
	<path class="st0" d="M369.6,259.4c0.1-0.2,0.1-0.5,0.2-0.8c1-3.2,2-6.4,2.9-9.6c0.2-0.5,0.3-1,0.8-1.3c0.6-0.3,1-0.2,1.1,0.5
		c0.1,0.4,0,0.8-0.1,1.2c-1,3.4-2,6.8-3.1,10.2c0,0.1-0.1,0.2-0.1,0.3c-0.2,0.4-0.2,1.1-0.9,1.1C370.1,261,369.6,260.1,369.6,259.4z
		"/>
	<path class="st0" d="M378.7,174.6c0.7,0.5,1.1,1.2,1.2,2c0.3,2.9,0.7,5.9,1.1,8.8c0.1,1-0.4,1.8-0.9,2.7c-0.7-1.1-1.1-2.2-1.3-3.4
		c-0.4-2.5-0.5-5.1-0.8-7.6C377.8,176.3,378,175.4,378.7,174.6z"/>
	<path class="st0" d="M109.7,32.2c0.4,0.1,0.8,0.3,1,0.7c0.2,0.4,0.1,0.8-0.2,1c-0.3,0.3-0.7,0.5-1,0.7c-3,1.6-6,3.2-9,4.7
		c-0.3,0.2-0.7,0.3-1,0.4c-0.4,0.1-0.7,0-0.9-0.4c-0.2-0.4-0.1-0.7,0.2-1c0.2-0.2,0.4-0.3,0.7-0.4c3.1-1.8,6.3-3.5,9.4-5.3
		C109.2,32.5,109.5,32.3,109.7,32.2z"/>
	<path class="st0" d="M348.2,303.3c-0.1-0.5,0.2-1,0.5-1.5c1.7-2.6,3.3-5.3,5-7.9c0.2-0.4,0.4-0.7,0.8-0.9c0.3-0.2,0.7-0.6,1.1-0.3
		c0.3,0.3,0.5,0.8,0.2,1.3c-0.1,0.1-0.2,0.3-0.2,0.4c-2,3.2-3.9,6.4-5.9,9.5c-0.2,0.3-0.3,0.8-0.9,0.6
		C348.1,304.4,348.3,303.9,348.2,303.3z"/>
	<path class="st0" d="M254.2,23.8c-0.8,0.7-1.6,0.8-2.5,0.5c-3.2-1-6.4-2-9.6-2.9c-0.7-0.2-1.3-0.5-1.4-1.3c0-0.5,1.1-0.7,1.9-0.5
		c3.3,1,6.6,2,9.9,2.9C253.2,22.7,253.8,23.1,254.2,23.8z"/>
	<path class="st0" d="M6.1,201c-0.8-0.4-1-0.9-1-1.8c0-3.4,0-6.8,0.3-10.2c0.1-0.8,0.6-1.7,1-1.6c0.7,0.3,0.9,0.9,1,1.6
		c0,0.5,0,1,0,1.6c-0.2,2.8-0.3,5.5-0.3,8.3C7,199.8,6.8,200.5,6.1,201z"/>
	<path class="st0" d="M285.7,38.3c0.9-0.4,1.6-0.3,2.3,0.2c2.8,1.8,5.7,3.6,8.6,5.4c0.6,0.4,1.1,0.9,1.3,1.7c-0.9,0.1-1.8,0-2.5-0.4
		c-2.8-1.7-5.6-3.4-8.4-5.1C286.3,39.7,285.9,39.2,285.7,38.3z"/>
	<path class="st0" d="M89.5,45.6c0.1,0.5-0.3,0.8-0.7,1.1c-3,2.1-5.9,4.3-8.9,6.4c-0.5,0.3-1,0.7-1.5,0.2c-0.4-0.4-0.3-1,0.5-1.6
		c2.5-1.8,5-3.6,7.4-5.5c0.6-0.4,1.2-0.9,1.8-1.2C88.8,44.5,89.5,44.9,89.5,45.6z"/>
	<path class="st0" d="M377.3,162.8c0,0.5-0.1,1-0.6,1.1c-0.5,0.1-1-0.3-1.1-0.9c-0.2-1-0.5-1.9-0.7-2.9c-0.6-2.5-1.2-5.1-1.8-7.6
		c-0.1-0.3-0.2-0.6-0.2-0.9c0-0.5,0.3-0.8,0.7-1c0.5-0.2,0.7,0.2,1,0.6c0.1,0.2,0.2,0.4,0.2,0.6c0.8,3.5,1.7,7,2.5,10.4
		C377.3,162.4,377.3,162.6,377.3,162.8z"/>
	<path class="st0" d="M134.8,272.1c0-0.6,0-1.1,0-1.7c-0.1-2.2-1.1-4-2.9-5.3c-1.2-0.8-2.5-1.4-3.8-1.9c-0.5-0.2-1.2-0.2-1.7-0.9
		c3.6-0.1,6.6,1,8.8,3.8C136.8,268.1,136.7,269.7,134.8,272.1z"/>
	<path class="st0" d="M48.4,233.6c0.9-0.8,1.8-0.9,2.6-1.1c2.3-0.5,4.6-0.4,6.8,0.5c1.7,0.7,2.6,1.7,3.2,3.6
		c-1.9-1.4-3.8-2.5-5.9-2.9C52.9,233.4,50.7,233.5,48.4,233.6z"/>
	<path class="st0" d="M160.7,289.7c-3.1-1.1-5.8-2-8.7-3C154.6,285,159.1,286.4,160.7,289.7z"/>
	<path class="st0" d="M294.7,222c0.3-10.5-0.9-20.9-1.8-31.6c0.9,1.8,1.1,3.6,1.4,5.3c1.5,7.3,1.6,14.6,1.2,22
		c-0.1,2-0.4,3.9-0.6,5.9C294.2,223.2,294.8,222.5,294.7,222z"/>
	<path class="st0" d="M287.7,161.3c-0.5-0.2-0.5-0.6-0.6-0.8c-0.3-0.9-1.2-1.8-0.5-2.9c1.2-1.6,2.3-3.3,4.5-3.5c1-0.1,1.2,0.1,1,1.1
		c-0.2,0.9-0.6,1.8-1.2,2.5C289.9,158.9,288.7,160.1,287.7,161.3z"/>
	<path class="st0" d="M240.5,115.7c1-0.9,2.1-1.9,3.2-2.7c0.3-0.2,0.7-0.5,1.1-0.6c0.8-0.3,1.3,0.1,1.4,1c0.1,2.7-2.2,4.2-4.7,3.1
		C241.1,116.3,240.7,116.2,240.5,115.7z"/>
	<path class="st0" d="M372.7,172.2c-1.2-5-2.3-9.9-3.5-14.9c-0.3-1.1-0.4-2.2-0.8-3.3c-0.8,0.4-1.4,0.9-2.1,1
		c-3.2,0.8-6.5,1.6-9.8,2.4c-0.9,0.2-1.6-0.2-2.1-1c-0.3-0.6-0.7-1.3-1-2c-1.2,0.5-2.5,0.7-3.6,1.6c0.7,0.2,1.3,0.4,1.8,0.6
		c-2.2,2-4.2,2.4-5.8,1.1c0.6-0.3,1.2-0.6,1.8-0.9c0.3-0.1,0.4-0.3,0.3-0.6c-0.1-0.4-0.4-0.2-0.6-0.1c-1.8,0.6-3.7,1.3-5.5,1.9
		c-0.3,0.1-0.7,0.1-0.8,0.6c0.4,0,0.8,0.1,1.3,0.1c0.3,0,0.5,0.1,0.6,0.4c0,0.3-0.2,0.5-0.5,0.5c-1.5,0.4-3,0.9-4.5,1.3
		c-0.5,0.2-0.7-0.1-0.8-0.4c-0.2-0.4,0-0.6,0.4-0.7c0.6-0.3,1.3-0.6,1.9-0.9c-2.6-0.1-5.2,0.1-7.5,1.9c0.8,0.1,1.3,0.1,1.8,0.2
		c0.2,0,0.4,0.1,0.5,0.4c0.1,0.3-0.1,0.4-0.4,0.5c-1.6,0.4-3.1,0.9-4.7,1.3c-0.5,0.1-0.8-0.3-0.6-0.7c0.2-0.5,0.8-0.8,0.7-1.7
		c-1.9,0.5-3.7,1-5.5,1.7c0.3,0.6,0.9,0.5,1.2,0.7c0.3,0.1,0.7,0.1,0.6,0.5c0,0.3-0.3,0.4-0.6,0.5c-1.5,0.4-3,0.8-4.5,1.2
		c-0.6,0.2-0.9-0.1-0.7-0.7c0-0.1,0.1-0.3,0.2-0.4c0.1-0.3,0.4-0.6,0.1-1c-0.4-0.3-0.7,0-1,0.1c-1.2,0.4-2.4,0.8-3.6,1.2
		c-0.3,0.1-0.6,0.1-0.6,0.6c0.4,0.3,1,0.3,1.5,0.4c0.2,0,0.4,0,0.5,0.3c0,0.3-0.1,0.4-0.3,0.5c-1.8,0.6-3.5,1.2-5.4,1.6
		c-0.1-0.6-0.1-1.1-0.1-1.7c-0.1-0.6-0.5-0.9-1-0.7c-1.3,0.5-2.6,1-4,1.6c0.9,0.6,1.7,0.4,2.5,1c-1.5,0.6-2.9,1.2-4.3,1.8
		c1.4,0.2,2.8-0.3,4.3,0c-1.1,1.5-2.8,2.5-4.2,2.6c-0.5,0-1.3,0-1.1-0.7c0.3-1.1-0.4-1.8-0.6-2.7c-0.4-1.2-0.8-1.4-2-0.8
		c-0.8,0.4-1.6,1-2.5,1.2c-1.1,0.3-2,0.8-2.8,1.6c-0.7,0.7-1.6,0.9-2.6,0.6c2.9-4.9,7.2-8.5,10.5-12.9c-2.3-1.8-2.3-2.6-0.4-4.6
		c0,0,0.1-0.1,0.1-0.1c1.7-1.7,3.3-3.4,4.8-5.2c1.4-1.7,3.1-2.9,5.2-3.7c1-0.4,1.9-0.8,2.8-1.4c2.6-1.8,3.9-4.2,4-7.3
		c0-1,0-2.1-0.2-3.1c-0.3-2.3-0.8-4.5-1.3-6.8c-0.2-1.1-0.1-2.1,0.9-2.8c1.4-1,1.9-2.5,2.2-4c0.1-0.7,0.3-1.3,0.8-1.8
		c1-1.2,2-2.4,3-3.6c0.6-0.7,0.6-1.9,0.1-2.3c-0.4-0.4-1.3-0.3-2.1,0.4c-1.4,1.2-2.8,2.3-4.2,3.5c-0.4,0.3-0.6,0.7-1.2,0.7
		c-1.8,0-3,1-3.6,2.5c-0.5,1.1-1.1,1.3-2.1,1.2c-0.4-0.1-0.8-0.1-1.2-0.2c-2.7-0.2-5.3-0.6-8-0.4c-4.1,0.2-7.2,2.1-8.8,6
		c-0.4,0.9-0.7,1.8-0.9,2.7c-0.3,1.1-0.8,2-1.5,2.8c-2.2,2.4-4.4,4.8-6.6,7.1c-0.2,0.3-0.5,0.5-0.8,0.8c-0.5,0.4-1.5,0.6-1.7,0.2
		c-0.4-0.6,0.2-0.9,0.6-1.3c0.4-0.4,0.9-0.8,1.3-1.2c1.9-1.7,3.8-3.5,5.7-5.2c0.5-0.4,0.9-0.9,1-1.5c0.3-2.1,0.5-4.2,0.6-6.3
		c-0.4-0.1-0.7,0-1,0c-1.4,0.3-2.9,0.6-4.3,0.9c-0.3,0.1-0.6,0.3-0.8-0.1c-0.2-0.4-0.2-0.7,0.1-1c0.4-0.5,0.8-1,1.2-1.5
		c4-4.3,7.9-8.6,11.9-13c1.9-2.1,4-4.1,6.5-5.7c0.4-0.2,0.7-0.5,1-0.8c1.1-1,1.5-2.2,1.1-3.7c-0.2-0.6-0.3-1.2-0.3-1.8
		c-0.2-2.2,0.6-4.1,1.8-5.9c0.5-0.8,1.1-1.5,1.1-2.6c-0.9,0.4-1.7,0.7-2.3,1.3c-2.1,1.9-4.4,2.7-7.2,2.1c-1.9-0.4-3.4,0.4-4.4,2.1
		c-0.3,0.5-0.6,1.1-0.8,1.7c-0.4,0.8-0.8,1.6-1.4,2.2c-5.3,5.7-10.5,11.5-15.8,17.2c-0.5,0.5-1,0.9-1.6,1.3c-0.4,0.3-0.9,0-0.8-0.5
		c0-0.6,0.2-1.1,0.3-1.7c0.2-1.5,0.7-2.9,0.6-4.5c-1.7,0.4-3.4,0.8-5,1.2c-0.3,0.1-0.5,0.1-0.8,0.2c-0.3,0.1-0.5,0-0.7-0.3
		c-0.1-0.3-0.2-0.6,0.2-0.8c0.3-0.2,0.5-0.3,0.8-0.5c1-0.7,2.2-1,3.3-1.6c3.9-1.9,5.8-4.9,5.8-9.2c0-1.6-0.2-3.1-0.5-4.7
		c-0.3-1.5-0.7-2.9-1-4.4c-0.2-1-0.3-2,0.7-2.5c1.4-0.8,2.1-2.2,2.3-3.6c0.2-1.5,1-2.4,1.9-3.5c0.6-0.8,1.3-1.5,1.9-2.3
		c0.3-0.4,0.6-0.9,0.7-1.4c0.1-0.4,0.1-0.9-0.3-1.1c-0.5-0.3-0.9-0.5-1.5-0.1c-0.3,0.2-0.6,0.4-0.9,0.7c-1.2,1-2.4,2-3.6,3.1
		c-0.7,0.6-1.5,1.2-2.4,1.4c-1.1,0.2-1.9,0.9-2.5,2c-0.5,1-1.4,1.5-2.6,1.4c-0.6,0-1.2-0.1-1.7-0.2c-2-0.4-3.9-0.6-5.9-0.7
		c-5.2-0.2-8.6,2-10.5,6.8c-0.3,0.8-0.6,1.6-0.8,2.4c-0.3,1-0.8,1.8-1.5,2.6c-2.4,2.7-4.9,5.3-7.3,8c-0.5,0.6-0.9,0.7-1.7,0.3
		c-2.1-1.1-2.4-1-4.1,0.6c-1.8,1.8-3.6,3.7-5.3,5.6c-2.1,2.5-7.4,2-8.7-1.4c-1.4-3.7-3.1-7.4-4.7-11.1c-0.7-1.6-0.8-3.1-0.7-4.7
		c0-0.3,0.1-0.6,0.1-0.9c0.1-1.2-0.3-1.8-1.4-2.1c-0.8-0.2-1.2-0.7-1.4-1.5c-1.4-4.9-2.8-9.8-3.8-14.8c-0.2-1-0.3-2.1,0.4-2.8
		c1-1,0.7-2,0.1-3c-1-1.6-1.2-3.4-1.2-5.2c-0.2-5.3-0.4-10.5-0.5-15.8c-0.2-8.7-0.1-17.4,0.4-26.1c0.1-2.7,0.7-5.4,0-8.1
		c-0.2-0.8,0.2-1.6,1.1-2c1.2-0.5,1.4-1,0.9-2.2c-0.7-1.8-1.6-3.5-2.7-5.2c-0.5,0.6-0.9,1.2-1.5,1.6c-2.3,1.7-2.7,3.9-2.3,6.5
		c0.3,1.9,0.3,3.9,0,5.8c-0.7,6-1.6,12-2.7,17.9c-1.9,10.1-4.3,20-6.6,29.9c-0.2,0.8-0.5,1.5-1.3,1.9c-0.6,0.3-0.8,0.7-0.8,1.4
		c0,0.5-0.1,1,0,1.6c0.2,1.7-0.3,3.3-1,4.8c-0.2,0.4-0.4,0.9-0.6,1.3c-1.6,3.2-3.1,6.5-4.7,9.7c-0.3,0.7-0.6,1.4-1.6,1.6
		c-1.7,0.3-2,0.7-2.2,2.5c-0.2,2-0.8,3.9-2,5.5c-1.8,2.7-3.6,5.4-5.3,8.2c-2.1,3.6-5.4,5.5-9.5,5.8c-1.5,0.1-2.9-0.3-3.9-1.6
		c-2-2.7-4-5.4-5.8-8.2c-0.3-0.5-0.6-1-1-1.4c-0.6-0.7-1.3-0.8-2.1-0.4c-0.4,0.2-0.8,0.5-1.2,0.8c-2.6,1.8-5.1,3.6-7.7,5.4
		c-1.8,1.2-2.9,1.2-4.1-0.6c0-0.1-0.2-0.1-0.3-0.1c-1.1,0.7-2.3,1.5-3.5,2.3c-2.4,1.5-5.2,1-6.8-1.2c-1-1.2-1.8-2.6-2.3-4.1
		c-0.5-1.3-1-1.6-2.3-1.2c-0.7,0.2-1.1,0-1.5-0.4c-0.6-0.7-1-1.4-1.5-2.2c-0.6-1-1.4-1.8-2.8-1.6c-0.6,0.1-0.9-0.2-1.2-0.6
		c-2.5-2.3-5.4-3.4-8.7-3.4c-0.8,0-1.4-0.2-2-0.7c-2-1.7-4.1-3.3-6.1-4.9c-0.3-0.2-0.5-0.6-1.1-0.6c0.4,1.7,1,3.2,1.7,4.8
		c0.7,1.7,0.9,3.4,0.9,5.2c-0.1,4.1-0.4,8.1,0.3,12.2c-0.5,1.4,0.5,2.3,1.2,3.1c0.9,1.1,1.4,2.1,0.8,3.5c-0.4,0.9-0.1,1.7,0.6,2.4
		c0.7,0.8,1.4,1.5,2.1,2.3c0.6,0.7,1.1,1.4,1.4,2.2c0.7,2.1-0.1,4.1-2.1,5.6c-0.8,0.5-1.6,1-2.2,1.7c-0.4,0.5-0.8,0.9-0.5,1.7
		c0.7,1.7,0.6,2-0.9,3.1c-2.2,1.5-4.4,3.1-6.6,4.6c-1.2,0.9-2.5,1.7-3.7,2.6c0.1,0.6,0.5,1,0.8,1.4c2.3,3.3,4.6,6.6,6.9,9.9
		c0.2,0.3,0.5,0.7,0.7,1.1c0.2,0.5,0.7,1.2,0.3,1.6c-0.4,0.5-1.2,0.5-1.9,0.4c-0.4-0.1-0.7-0.2-1-0.4c-2.1-0.9-4.2-1.9-6.3-2.8
		c-0.4-0.2-0.9-0.4-1.3-0.6c-1.1-0.4-1.7,0-2.3,1c-0.5,1-0.4,1.7,0.4,2.4c0.4,0.3,0.8,0.5,1.2,0.7c2,1.1,4.1,2.1,6.1,3.2
		c0.7,0.4,1.3,0.9,1.5,1.7c-0.9,0.9-1.7,0.7-2.7,0.3c-2.8-1.4-5.7-2.7-8.4-4.2c-0.4-0.2-0.7-0.4-1.1-0.6c-1.3-0.5-1.9-0.3-2.6,0.9
		c-1,2.1-1.9,4.2-2.8,6.3c-0.5,1.1-0.2,1.8,0.7,2.5c0.4,0.3,0.8,0.5,1.2,0.7c2.6,1.5,5.2,2.9,7.8,4.3c0.3,0.2,0.5,0.3,0.8,0.5
		c0.3,0.2,0.5,0.3,0.3,0.7c-0.2,0.4-0.5,0.2-0.8,0.1c-0.4-0.2-0.9-0.4-1.3-0.5c-2.4-1-4.7-1.9-7.1-2.8c-1.5-0.6-2-0.4-2.7,1.1
		c-0.6,1.3-0.9,2.8-1.3,4.2c-0.2,0.8,0.2,1.4,0.8,1.8c2.1,1.5,4.3,3,6.7,4c0.6,0.3,1.2,0.6,1.8,0.9c0.7,0.4,1.1,1.1,0.9,1.7
		c-0.2,0.6-1,0.7-1.6,0.6c-0.5,0-0.9-0.1-1.4-0.1c-1.3-0.2-2.7-0.4-4-0.6c-14.2-2.7-28.3-5.4-42.5-8c-1.7-0.3-3.3-0.9-4.9-0.8
		c-1.6,0.1-3.2,1-4.7,1.6c-0.3,0.1-0.7,0.2-1,0.4c-3,1.4-6.1,1.8-9.3,1.8c-1.9,0-3.8,0-5.7,0.2c-0.7,0.1-1.3,0.2-1.9,0.6
		c-0.3,0.2-0.7,0.4-0.7,0.8c-0.1,1.2-0.5,2.3-0.4,3.6c0.1,0.5,0.2,1,0.6,1.4c1.5,1.3,3,2.5,5,2.8c3.4,0.5,6.4,1.9,9.1,4
		c1.3,1,2.6,2,3.9,3c1.2,0.9,2.6,1.6,4.1,1.8c3.4,0.4,6.8,0.9,10.1,1.4c3.6,0.5,7.3,0.9,10.9,1.4c7.1,1.1,14.3,2.4,21.4,3.6
		c2.3,0.4,4.6,0.8,6.8,1.2c1.4,0.3,1.8,0.8,1.7,2.2c0,0.8-0.1,1.7-0.1,2.5c-0.1,1.5,0,3,0.2,4.5c0.4,2.1,0.1,2.5-2,3.1
		c-0.2,0.1-0.4,0.1-0.6,0.2c-7.1,2-12.6,6.1-16.5,12.5c-0.5,0.8-0.9,1.6-1.6,2.3c-8.4-6.8-17.7-7.3-24.6-0.3c-1-1.1-1.9-2.2-2.9-3.3
		c-2.6-3-5.7-5.4-9.2-7.2c-6.3-3.3-12.8-4.1-19.5-0.9c-0.5,0.2-1,0.6-1.6,0.4c-0.5-1.6,0.1-3.6-1.7-4.8c-0.7,0.6-0.8,1.2-0.7,1.9
		c0.1,0.6,0.1,1.2,0.1,1.9c0.1,2.2-0.8,3.8-2.7,4.9c-0.2,0.1-0.5,0.1-0.6,0.5c1.1,0.4,2.2,0,3.2-0.4c2.2-0.9,4.4-2,6.6-2.9
		c4.1-1.7,8.2-1.6,12.2,0.1c3.8,1.6,7.2,3.9,10.1,6.8c1.5,1.4,2.7,3.1,3.6,4.9c2.4,4.5,2.9,9.1,1,13.9c-0.6,1.6-0.9,3.3-1.3,5
		c-0.1,0.2,0,0.4,0.1,0.5c0.3,0.2,0.5,0.1,0.7-0.1c2.7-2.7,4.5-5.8,4.7-9.8c0.1-2.2-0.1-4.3-0.5-6.4c-0.3-1.7,0.2-3.2,1.6-4.4
		c2.9-2.5,6.2-3.5,9.9-2.7c4.1,0.8,7.4,2.9,9.9,6.2c0.9,1.1,1.8,2.3,2.7,3.4c0.2,0.2,0.4,0.5,0.6,0.7c0.2,0.2,0.4,0.2,0.6,0.1
		c0.2-0.1,0.3-0.3,0.3-0.5c0-0.3-0.1-0.5-0.1-0.8c-0.6-3.4,0-6.5,2.3-9.2c0.2-0.2,0.4-0.5,0.6-0.7c6.9-7.5,15.1-11.6,25.6-9.7
		c11,2,19.2,7.8,24.3,17.7c2.4,4.5,3.3,9.3,2.8,14.4c-0.4,3.5-1.4,6.8-3,10c-0.3,0.5-0.5,1-0.8,1.5c-0.1,0.3-0.2,0.6,0.1,0.8
		c0.3,0.2,0.5-0.1,0.7-0.3c0.4-0.4,0.8-0.9,1.2-1.2c0.6-0.6,1.2-1.1,1.9-1.7c0.8-0.6,1.7-0.9,2.8-0.6c1.4,0.3,2.8,0.5,4.2,0.8
		c3.6,0.9,6.9,2.4,9.6,5c2.6,2.5,3.7,5.5,2.9,9.1c-0.2,0.7-0.3,1.4-0.4,2.2c-0.1,0.7,0.2,0.8,0.8,0.8c0.2,0,0.4-0.1,0.6-0.1
		c2.4-0.4,3.2,0.3,3,2.8c0,0.3-0.1,0.6-0.1,0.9c0,0.4-0.1,0.8,0.1,1.1c0.9,1.4,1.8,2.9,3,4.3c0.2-0.7,0.3-1.3,0.5-1.9
		c0.5-1.4,1-1.8,2.5-1.5c4.2,0.9,7.7,2.9,10.4,6.3c0.9,1.2,1.8,2.3,2.7,3.4c0.2,0.2,0.4,0.5,0.6,0.7c0.2,0.3,0.4,0.2,0.7,0.1
		c0.2-0.1,0.3-0.3,0.2-0.5c-0.1-0.4-0.1-0.7-0.2-1.1c-0.4-2.9,0.1-5.6,1.9-8.1c6.5-8.9,15.4-12.4,25.9-11.1
		c11.1,1.3,19.4,7.4,24.8,17.2c2.9,5.2,3.8,10.9,2.7,16.8c-0.4,2.2-1.1,4.3-1.8,6.5c-0.2,0.6-0.6,1.1-0.3,1.8c0.5-0.2,1-0.5,1.4-0.7
		c2.1-0.9,4.2-1.3,6.4-0.9c6,1.1,10.4,4.1,12.9,9.8c0.8,1.9,1.4,3.8,2,5.8c0.2,0.6,0.5,1.1,1,1.5c1.2,0.8,2.4,1.7,3.6,2.5
		c0.2,0.2,0.5,0.6,0.8,0.3c0.5-0.5,0.9-0.1,1.2,0.1c2.8,1.5,5.7,2.9,8.9,3.5c2,0.4,3.4,1.7,4.8,3.1c1.1,1.2,2.3,2.1,3.6,3.1
		c0.2,0.1,0.4,0.3,0.7,0.2c0.3-0.2,0.4-0.5,0.3-0.8c-0.2-0.8-0.4-1.6-0.9-2.3c-0.9-1.3-1.9-2.5-2.9-3.7c-1.5-1.7-1.6-3.2-0.3-5.3
		c2.9,2.1,6,4.1,8.7,6.4c4.3,3.7,9.2,5.9,14.9,6.5c2,0.2,3.9,0.8,5.5,2.1c3,2.3,5.2,5.3,7.8,8.1c-1.6,1.1-3.1,2.2-4.5,3.2
		c-0.7,0.5-1.1,1.1-0.9,1.9c1,0.3,1.7,0.1,2.4-0.5c0.5-0.4,1.1-0.8,1.7-1.2c1.3-0.9,2.5-2,4.1-2.2c0.3,0,0.6-0.2,0.7-0.5
		c0.5-1.3,1.4-2.3,2.2-3.7c-0.8,0.3-1.4,0.4-2,0.7c-0.7,0.3-1.1,0.1-1.5-0.6c-0.6-1.3-1.2-2.5-2.2-3.6c-3.4-3.5-4.7-7.7-4.1-12.5
		c0.1-1,0.3-2.1,0.4-3.1c0.2-2.8-0.6-5.4-1.7-7.9c-2-4.3-3.3-8.9-5.8-13c0-0.1,0-0.2-0.1-0.4c2.1-0.6,3.8-0.2,5.1,1.6
		c1.3,1.7,2.7,3.4,4.3,4.8c0.4,0.3,0.7,1,1.4,0.4c0.7-0.6,0.1-1-0.1-1.5c-0.9-1.8-1.7-3.6-2.9-5.2c-0.8-1.1-1.1-2.2-0.8-3.5
		c0.2-1,0.2-2,0.1-3c-0.3-3.3-1.6-6.2-3.4-9c-0.7-1-1.4-1.9-2.1-2.9c-1-1.5-0.9-2.8,0.3-4.1c0.6-0.6,1.2-1.2,1.8-1.7
		c0.5-0.4,0.5-0.7,0.1-1.2c-0.2-0.2-0.4-0.5-0.6-0.7c-2.7-3.5-5.5-7-8.2-10.5c-0.4-0.5-0.9-1-1.1-1.7c-0.2-0.7,0.1-1.2,0.6-1.7
		c0.6-0.5,1-0.1,1.4,0.2c0.7,0.4,1.3,0.9,1.9,1.4c8.7,6.2,18.1,11.1,28.5,13.8c4.9,1.3,9.9,1.7,15,1.3c2.8-0.2,3.5-1.5,2.1-4
		c-1.7-3-3.7-5.8-6.2-8.2c-4-4-8.4-7.4-13.2-10.3c-6.3-3.8-12.9-6.7-19.8-9.1c-0.5-0.2-1.1-0.4-1.6-0.6c-0.5-0.2-0.6-0.6-0.1-1
		c0.8-0.6,1.5-1.1,2.6-0.8c0.9,0.2,1.8,0.1,2.7,0c2-0.3,3.8-1.1,5.7-1.8c1.9-0.7,3.7-1.4,5.8-1.4c0.5,0,0.9-0.3,1.3-0.5
		c1.5-1,3.1-1.8,4.8-2.3c2.6-0.7,5.1-1.6,7.7-2.2c2.2-0.5,3.3-1.8,3.9-4c1.4-5,1.4-10.1,1.1-15.2c0-0.6-0.3-1.2-0.6-1.8
		c-1.2-1.7-1.5-3.7-1.3-5.5c0.1-1.4-0.2-2.4-0.8-3.5c-0.6-1.1-1.1-2.3-1.7-3.3c-0.7-1.2-1.3-2.4-2.1-3.5c-1.1-1.7-2.7-2.6-4.8-2.2
		c-0.4,0.1-0.7,0-1.1-0.1c-2.9-0.6-5.7-1.3-8.6-1.9c-2.2-0.5-4.3-0.8-6.5-1.3c-1.2-0.3-1.8-1.2-1.7-2.4c0-1,0.4-1.4,1.8-1.6
		c1.5-0.3,3-0.4,4.5-0.7c1.8-0.3,2.1-0.8,2.3-2.6c0.1-1.1-0.5-1.5-1.2-2c0.4-0.8,1.2-1.1,1.4-1.8c-0.7-0.5-1.5-0.6-2.1-1.2
		c1.5-2.2,3.6-1.5,5.8-1.4c-1,1.1-2.3,1.5-3.2,2.7c1.3,0,2.3,0,3.4,0c0.2,0,0.4-0.1,0.5,0.2c0.1,0.3-0.1,0.5-0.3,0.6
		c-0.5,0.4-1.3,0.7-1.7,1.4c0.9,0.1,1.7,0.1,2.4,0.4c-0.6,0.7-1.5,0.9-2.2,1.9c2.3-0.4,4.2-0.8,6.3-1.4c-0.5-0.7-0.9-1.2-1.3-1.8
		c0.8-0.4,1.6-0.8,2.4-1.2c-0.8-0.6-1.8-0.3-2.6-0.9c0.6-0.5,1.3-1.1,1.9-1.6c-0.9-0.5-2-0.5-2.7-1.1c0.6-0.9,1.5-1.3,2.2-2.1
		c-1.9,0-1.9,0-3-1.1c1.4-1.9,3-2.4,5.8-1.5c0,0.1,0,0.1,0,0.2c-0.8,1.1-1.1,2.1,0.4,3c0.6,0.3,0.4,0.9-0.1,1.3
		c-0.5,0.4-1.1,0.5-1.6,1.2c0.9,0,1.6,0,2.4,0c0.2,0,0.4,0.2,0.5,0.4c0.1,0.2-0.1,0.4-0.2,0.5c-0.7,0.5-1.4,1-2.1,1.5
		c0,0.1,0.1,0.2,0.1,0.3c1,0,1.9,0,3.2,0c-0.8,0.6-1.3,0.9-1.7,1.3c-0.1,0.1-0.3,0.3-0.1,0.6c0.1,0.2,0.3,0.3,0.5,0.3
		c1.9-0.6,3.8-1.3,5.6-1.9c-0.4-0.2-0.8-0.2-1.2-0.2c-0.3,0-0.6,0-0.7-0.4c-0.1-0.5,0.2-0.6,0.6-0.8c0.5-0.3,1.2-0.4,1.8-1
		c-1.1,0-2.1,0.1-2.7-0.8c0.1-0.5,0.4-0.9,0.9-1c1.4-0.5,3-0.7,4.4-0.9c0.3-0.1,0.5,0.1,0.6,0.4c0.1,0.2,0,0.4-0.2,0.6
		c-0.4,0.4-1,0.7-1.3,1.3c0.7,0.3,1.3,0.5,2.1,0.8c-0.9,0.6-1.7,1-2.4,1.4c2.4,0,4.8,0.2,6.8-1.6c-0.5-0.3-1-0.3-1.4-0.4
		c-0.4,0-0.5-0.3-0.5-0.6c0-0.3,0.1-0.5,0.4-0.6c1.6-0.3,3.3-0.7,4.9-1c0.3,0,0.5,0,0.6,0.3c0.1,0.2-0.1,0.4-0.3,0.5
		c-0.4,0.4-1.2,0.5-1.2,1.5c2-0.3,3.9-0.8,5.9-1.4c-0.8-0.7-1.5-1.2-2.1-1.8c1.3-0.6,5-1.3,6.3-1.3c0.2,0.7-0.5,0.8-0.8,1.2
		c-0.2,0.2-0.5,0.3-0.3,0.6c0.2,0.4,0.5,0.2,0.8,0.2c0.9-0.3,1.8-0.5,2.7-0.8c0.7-0.2,1.5-0.2,2.2-0.8c-0.4-0.3-0.8-0.5-1.1-0.7
		c-0.3-0.2-0.6-0.3-0.5-0.7c0-0.4,0.4-0.4,0.7-0.5c1.5-0.3,3.1-0.6,4.6-1c0.3-0.1,0.5-0.1,0.6,0.2c0.1,0.3-0.1,0.5-0.3,0.6
		c-0.5,0.4-1.1,0.5-1.5,1.1c1.3,0.1,2.5-0.3,3.7-0.3c0.7,0,0.8-0.3,0.8-1c-0.1-2.2,0.2-2.6,2.2-3.4c0.9-0.4,1.8-0.7,2.7-0.9
		c0.6-0.2,0.6-0.4,0.4-0.9c-0.5-1.1-0.5-1.1-1.8-0.9c-1.1,0.2-2.3,0.5-3.4,0.5c-1.1,0-1.4-0.4-1.5-1.4c0-0.3,0-0.5,0-0.8
		c-0.1-0.8,0.3-1.2,1.1-1.4c1.4-0.3,2.8-0.7,4.3-1.1c0.4-0.1,0.7-0.2,0.7-0.7c-0.2-2.1-0.4-4.1-0.6-6.3c-0.5,0.1-0.7,0.2-0.9,0.3
		c-1.4,0.4-2.8,0.9-4.2,1.2c-1,0.2-2-0.2-2.3-0.9c-0.3-0.7-0.5-1.4-0.7-2.1c-0.3-1-0.1-1.5,0.9-1.9c0.9-0.4,1.9-0.7,2.8-0.9
		c2.5-0.6,4,0.1,5.2,2.4c0.2,0.4,0.4,0.7,0.5,1.1c0.7,1.6,1,3.3,1.1,5c0.3,2.6,0.5,5.3,0.7,8.1c1.8-0.4,3.5-0.9,5.2-1.3
		C372.9,173.2,373,173.2,372.7,172.2z M305.6,142.9c2.3,2.1,2.3,2.3,0.4,4.1C303.7,145.6,303.6,145.3,305.6,142.9z M301.5,140.1
		c0.1-0.1,0.3-0.1,0.4-0.1c1.1,0.3,1.6,1.7,1,2.6c-0.4,0.5-0.8,1.1-1.4,1.5c-0.3-0.4-0.5-0.7-0.8-1
		C299.7,141.7,300,140.8,301.5,140.1z M296.5,136.8c0.7-0.7,1.1-0.7,1.9-0.2c0.6,0.4,1.2,0.9,1.9,1.5c-0.8,0.5-1.4,0.9-2.1,1.2
		c-0.9,0.4-1.5,0.2-2-0.6C295.8,138,295.9,137.4,296.5,136.8z M42.9,191.3c-4.3,0-7.9-3.6-8-7.8c0-4.4,3.6-8.1,7.9-8
		c4.5,0,8,3.4,8,7.9C50.8,187.9,47.4,191.3,42.9,191.3z M297.1,325.1c0.3,0.1,0.5,0.4,0.6,0.7c0,0.3-0.2,0.5-0.4,0.6
		c-3,2.1-6,4.2-9,6.3c-0.2,0.1-0.4,0.2-0.6,0.3c-0.4,0.1-0.8,0.1-1-0.2c-0.3-0.3-0.2-0.8,0.1-1.1c0.2-0.2,0.4-0.3,0.6-0.5
		c2.7-1.9,5.4-3.8,8.1-5.7C296,325.2,296.5,324.9,297.1,325.1z M287.7,317.6c0.2,0.2,0.5,0.4,0.7,0.6c1.7,1.4,1.7,1.9,0.1,3.5
		c-0.2,0.2-0.4,0.3-0.6,0.5c-0.3-0.3-0.5-0.6-0.8-0.9C285.7,319.3,285.7,319.3,287.7,317.6z M291,313.3c0.5,0.6,0.9,1.1,1.3,1.5
		c0.4,0.4,0.5,0.9,0.3,1.5c-0.1,0.5-0.3,1.1-0.9,1.2c-0.4,0.1-0.7-0.4-0.9-0.7C289.6,315.5,289.7,314.8,291,313.3z M288.1,288.1
		c0.7,0.7,1.2,1.6,1.7,2.4c0.3,0.4,0.2,0.8-0.1,1.2c-0.2,0.4-0.5,0.6-1,0.3c-0.9-0.7-1.9-1.3-3-2
		C286.6,289.3,287.3,288.7,288.1,288.1z M292.2,133.2c0.3-0.5,0.7-0.9,1.1-1.4c0.6,0.3,0.8,0.7,1.1,1c0.9,1.1,0.9,1.4-0.1,2.3
		c-0.4,0.4-0.8,1-1.5,0.3C291.8,134.4,291.6,134.1,292.2,133.2z M283.2,147.1c0.4-0.3,0.7-0.3,1.1,0.1c0.4,0.4,0.3,0.7,0.1,1.1
		c-0.7,1.3-1.3,2.6-2,4.1c-0.9-1.1-1.6-2.1-2.5-3.2C281.1,148.4,282.2,147.7,283.2,147.1z M282.7,126.5c-0.2,2.4-4.3,7-6.9,7.5
		C278.2,131.4,280.4,129,282.7,126.5z M274.5,140.5c0.6-0.1,1.2,0,1.9,0c0.2,0.8,0,1.6,0,2.4c-0.1,0.5-0.5,0.7-0.9,0.4
		c-0.5-0.5-1.1-1-1.5-1.6C273.6,141.1,273.8,140.6,274.5,140.5z M273.1,118.9c-1.2,2.9-3.1,5.3-5.7,6.8c-0.1-0.1-0.2-0.2-0.3-0.3
		C269.1,123.2,271.1,121,273.1,118.9z M269.3,136.9c-1.2-1.4-2.3-2.7-3.5-4.1c1.8-0.8,2.7,0.2,3.6,1.2
		C270.1,134.7,270.1,135.1,269.3,136.9z M264.2,108.9c0.3-0.6,0.9-1.2,1.6-1.4c0.4-0.2,0.7,0.1,1,0.3c0.5,0.4,1,0.9,1.5,1.4
		c-0.6,0.6-1.3,1-1.9,1.4c-0.5,0.3-1,0.3-1.4-0.2C264.7,109.9,264,109.5,264.2,108.9z M266.2,114.4c0.1-0.1,0.3-0.3,0.5-0.4
		c0.1-0.1,0.3-0.1,0.4,0c0.2,0.1,0.2,0.4,0.1,0.5c-0.2,0.3-0.5,0.6-0.7,0.8c-1.5,1.6-2.9,3.3-4.4,4.9c-0.2,0.2-0.3,0.5-0.7,0.5
		c-0.3-0.1-0.6-0.3-0.5-0.7c0-0.2,0.3-0.3,0.4-0.5C262.9,117.8,264.5,116.1,266.2,114.4z M260.8,104c0.6-0.5,1.1-0.5,1.8,0.1
		c1,0.8,1.1,1.4,0.2,2.4c-0.4,0.4-0.7,0.8-1.2,1.4c-0.5-0.7-1-1.3-1.3-1.9C259.8,105.2,260,104.6,260.8,104z M259.2,100.8
		c0.3,0.2,0.6,0.4,0.8,0.9c-0.2,0.2-0.5,0.4-0.8,0.7c-1.3,1.2-1.6,1.2-2.7,0c-0.8-0.8-0.8-0.8,0.1-1.7
		C257.7,99.6,257.9,99.6,259.2,100.8z M252.4,96.8c0.7-0.8,1.2-0.9,2-0.3c0.6,0.4,1.2,0.8,1.8,1.3c-0.7,0.5-1.3,1-1.9,1.3
		c-0.9,0.6-1.5,0.4-2.2-0.4C251.7,98.2,251.8,97.6,252.4,96.8z M250.6,120.2c0.2-0.1,0.5-0.1,0.7-0.2c0.7-0.1,1.3-0.3,2.1-0.5
		c0.1,1.3-0.2,2.4-0.3,3.6c-1.1-0.3-2-1-2.9-1.6C249.7,121.1,249.9,120.5,250.6,120.2z M199.2,78.6c0.2-0.7,0.5-1.4,0.7-2.1
		c0.2-0.8,0.7-1.3,1.6-1.2c1.4,0.1,2.8,0.2,4.2,0.4c1,0.1,1.1,1,1.2,1.8c0.2,1.9,0.4,3.7,0.6,5.6c0.2,1.4,0.4,2.9,0.6,4.3
		c0.2,1.2-0.1,1.5-1.3,1.4c-3.1-0.3-6.1-0.6-9.2-0.9c-0.4,0-0.8,0.1-1.3-0.4C197.2,84.6,198.2,81.6,199.2,78.6z M200.6,98.3
		c6,0.3,10.5,3.1,13.8,8.5c-9.5-0.6-18.7-1.2-28.1-1.8C190,100.1,194.8,98,200.6,98.3z M157.6,106.2c0.2-0.3,0.4-0.6,0.7-1
		c1,0.8,1.5,1.9,2.4,3c-0.2,0.2-0.3,0.3-0.5,0.3c-1.2,0.9-1.4,0.9-2.1,0.3C157,108,156.9,107.3,157.6,106.2z M155.1,100.9
		c0.1,0.1,0.3,0.2,0.4,0.3c0.3,0.3,0.6,0.7,0.9,1.1c0.8,1,0.3,2-0.9,2.2c-0.2,0-0.4,0-0.6-0.2c-0.4-0.5-0.9-0.9-1.1-1.5
		C153.5,102.2,154.3,100.9,155.1,100.9z M153.7,108.9c0.2,0,0.4,0,0.6,0.2c0.1,0.2,0.2,0.3,0.4,0.5c1.5,2,1.5,2-0.8,3.3
		c-0.4-0.6-0.9-1.1-1.3-1.7C152.1,110.2,152.7,109.1,153.7,108.9z M149.4,104.7c1.2-0.8,1.2-0.8,2,0.3c0.3,0.5,0.7,0.9,1,1.4
		c-0.3,0.5-0.7,0.9-1.2,1.2c-0.4,0.3-0.8,0.2-1.1-0.2c-0.3-0.5-0.6-1-1-1.4C148.7,105.5,148.8,105.1,149.4,104.7z M161.8,113.3
		c0.2-0.1,0.4-0.2,0.6-0.2c0.2-0.1,0.4,0,0.5,0.3c0.1,0.2-0.1,0.3-0.2,0.4c-0.2,0.1-0.5,0.2-0.7,0.3c-4.6,1.7-9.3,3.5-13.9,5.2
		c-0.3,0.1-0.6,0.2-0.8,0.3c-0.3,0-0.4-0.2-0.5-0.4c-0.1-0.2,0-0.4,0.2-0.5c0.2-0.1,0.5-0.2,0.7-0.3
		C152.4,116.6,157.1,114.9,161.8,113.3z M141.5,108.4c0.2-0.4,0.3-1.1,0.9-1.2c0.6-0.1,0.8,0.5,1,0.8c0.9,1.3,1.8,2.5,2.7,3.8
		c0.6,0.8,0.9,1.6,0.9,2.6c-1.6,0.5-1.6,0.5-2.5-0.7c-1-1.3-1.9-2.6-2.8-3.9C141.5,109.4,141.2,108.9,141.5,108.4z M119.3,125.4
		c-0.3-0.5-0.5-0.9-0.2-1.5c0.3-0.7,1.2-1,1.6-0.4c1.4,1.8,2.8,3.8,4.2,5.7c0.1,0.1,0.1,0.2,0.1,0.3c-0.2,0.4-0.3,0.8-0.7,1
		c-0.4,0.2-0.9,0.2-1.4,0c-0.2-0.1-0.4-0.4-0.5-0.6C121.3,128.4,120.3,126.9,119.3,125.4z M120.1,133.9c-0.5,0-0.7-0.4-1-0.6
		c-1.5-1.6-2.7-3.4-3.8-5.3c0,0,0-0.1-0.1-0.1c-0.3-0.6-0.1-1.1,0.2-1.6c0.1-0.3,1.3-0.1,1.7,0.3c0.2,0.2,0.4,0.5,0.6,0.7
		c0.8,1.1,1.5,2.2,2.3,3.2C120.9,131.6,120.9,132.7,120.1,133.9z M123.6,123.3c-0.8-1.2-0.8-1.2-0.1-2.7c0.9,0,1.5,0.4,2.1,1.1
		c1,1.4,1.9,2.8,3,4.2c0.5,0.6,0.6,1.1-0.2,1.5c-0.4,0.2-0.7,0.5-1.2,0.9C125.9,126.7,124.7,125,123.6,123.3z M128.8,123.1
		c-0.2-0.3-0.3-0.6-0.5-1c-0.3-0.5,0.2-0.7,0.5-1c0.3-0.3,0.6-0.3,0.9,0.1c0.1,0.2,0.3,0.3,0.5,0.4c0.9,0.9,1.9,1.8,2.9,2.8
		C130.2,125.7,130.1,125.6,128.8,123.1z M130.4,128.7c4.3-2.3,8.6-4.5,12.9-6.8c0.6-0.3,1.3-0.7,1.9-1c0.4-0.2,0.6,0,0.7,0.4
		c-0.1,0.5-0.6,0.6-0.9,0.8c-3,1.7-6.1,3.3-9.1,5c-1.7,0.9-3.3,1.8-5,2.7c-0.3,0.2-0.7,0.6-1.1,0C129.5,129.1,130,129,130.4,128.7z
		 M138.2,110.3c0.4-0.2,0.8-0.1,1.1,0.2c0.2,0.2,0.4,0.4,0.5,0.6c1,1.4,2,2.8,2.9,4.2c0.3,0.4,0.5,0.8,0.4,1.3
		c-0.1,1-0.6,1.3-1.5,0.9c-0.4-0.2-0.7-0.5-0.9-0.8c-0.9-1.3-1.9-2.6-2.8-3.9c-0.3-0.4-0.5-0.9-0.5-1.5
		C137.6,110.8,137.8,110.5,138.2,110.3z M134.1,113.2c0.6-0.3,1.1-0.1,1.5,0.4c1.3,1.7,2.5,3.3,3.8,5c0.2,0.2,0.3,0.4,0.4,0.6
		c-0.3,0.4-0.5,0.9-1,1.1c-0.6,0.2-1.2,0.2-1.6-0.4c-0.7-0.9-1.4-1.8-2-2.8c-0.5-0.7-1-1.5-1.4-2.2
		C133.5,114.2,133.6,113.5,134.1,113.2z M131.9,116.4c1.2,1.5,2.3,3.1,3.5,4.6c0.5,0.7,0.5,1-0.2,1.6c-0.6,0.5-1.3,0.5-1.8-0.1
		c-0.6-0.8-1.2-1.6-1.7-2.4c-0.6-0.9-1.2-1.7-1.8-2.6c-0.3-0.4-0.3-0.9,0-1.3c0.3-0.4,0.7-0.4,1-0.5
		C131.4,115.7,131.6,116.1,131.9,116.4z M131,107c-1.3-1.8-2.5-3.5-3.8-5.3C129.4,101.7,131.3,104.2,131,107z M128.5,109.7
		c-1.4-2.1-2.7-3.9-3.9-5.7C126.8,104.1,128.6,106.7,128.5,109.7z M124,107.1c1.1,1.2,1.8,2.6,1.4,4.4c-1.3-1.8-2.6-3.7-4-5.7
		C122.7,105.7,123.4,106.4,124,107.1z M123.7,112.8c-2.6-0.6-3.9-2.4-4.2-5.7C121.1,109,122.3,110.8,123.7,112.8z M116.1,109.4
		c0.5-0.4,0.7,0,1,0.3c1.2,1.5,2.3,3.1,3.5,4.7c-1,0.9-1.1,0.9-1.7,0.1c-1-1.3-1.9-2.6-2.8-3.9C115.8,110.2,115.4,109.9,116.1,109.4
		z M113,111.6c0.1-0.1,0.3-0.1,0.4-0.1c0.1,0,0.3,0.1,0.4,0.2c1.8,1.6,3.1,3.3,3.1,5.8c-0.1,0.1-0.2,0.1-0.3,0.2
		c-1.2-1.8-2.4-3.7-3.6-5.5C112.8,111.9,112.7,111.7,113,111.6z M110.3,112.8c1,0.9,1.5,1.9,2.2,2.8c0.7,0.9,1.3,1.9,2.2,3
		C112.1,117.9,110.6,115.9,110.3,112.8z M111.3,128.9c0.7-0.6,1.3-0.6,1.9,0.2c1.1,1.5,2.2,2.9,3.1,4.5c0.3,0.5,0.3,1,0.3,1.5
		c0,0.2,0,0.4,0,0.6c0,0.3-0.2,0.6-0.5,0.7c-0.4,0.1-0.7,0-0.9-0.4c-0.9-1.3-1.9-2.6-2.8-4c-0.4-0.5-0.7-1-1.1-1.5
		C110.6,129.7,110.6,129.5,111.3,128.9z M109.6,139.5c0.3-0.1,0.5,0.1,0.6,0.3c0.5,0.7,1.1,1.4,1.5,2.3c-0.5,0.5-1.1,1-1.7,1.5
		c-0.7-0.5-1-1.1-1.4-1.7C108.1,140.9,108.6,139.8,109.6,139.5z M105,135.8c0.4-0.4,0.7-0.9,1.3-1c0.3,0,0.5,0.1,0.7,0.3
		c0.3,0.4,0.6,0.7,0.8,1.1c0.6,1,0.6,1.1-0.1,1.6c-0.9,0.6-1.4,0.5-2-0.3c-0.2-0.2-0.4-0.5-0.5-0.8C105,136.6,104.6,136.3,105,135.8
		z M101.9,141.9c-0.7-0.9-1.4-1.7-1.9-2.7c0.6-0.5,1.3-1,1.9-1.4c0.7,0.9,1.3,1.8,2,2.7C103.2,141,102.6,141.5,101.9,141.9z
		 M103.2,144c2.4-1.7,1.8-1.6,3.3,0.4c0.2,0.3,0.8,0.6,0.4,1c-0.4,0.4-1,0.8-1.5,1.1c-0.2,0.1-0.4-0.1-0.5-0.3
		C104.4,145.5,103.9,144.8,103.2,144z M89.3,162.1c-0.8-0.4-1.1-1-1.1-1.9c0-0.7,0.4-1,1.1-0.8c0.2,0.1,0.5,0.2,0.7,0.4
		c2.1,1.2,4.2,2.3,6.3,3.5c0.6,0.3,1.1,0.7,0.9,1.4c-0.1,0.4-1.2,0.6-1.8,0.2C93.4,164.1,91.3,163.1,89.3,162.1z M90,174.5
		c-2.2-1-4.2-2.4-6.3-3.5c-0.4-0.2-0.5-0.4-0.3-0.7c0.1-0.2,0.2-0.4,0.5-0.3c0.1,0.1,0.4,0.2,0.6,0.3c2.5,1.3,5.1,2.6,7.6,3.9
		c0.1,0,0.2,0.1,0.3,0.2c0.3,0.1,0.5,0.3,0.3,0.7c-0.2,0.4-0.5,0.4-0.8,0.3C91.3,175,90.6,174.8,90,174.5z M250.7,322.6
		c-0.3,0.3-0.5,0.2-0.8,0c-0.9-0.6-1.9-1.3-3-2c0.9-0.8,1.7-1.4,2.5-2.1c0.7,1,1.1,2.1,1.6,3.1C251.1,322.1,251,322.4,250.7,322.6z
		 M255.2,319c-0.4,0.4-0.8,0.2-1.1,0c-0.9-0.6-1.8-1.2-2.9-2c0.9-0.8,1.6-1.5,2.5-2.2c0.5,1,1,2.1,1.6,3.2
		C255.5,318.4,255.6,318.7,255.2,319z M259.9,307.3c-1,0.8-2,0.8-3,0c-0.4-0.4-0.8-0.8-1.2-1.2c-1.2-1.4-2.3-2.8-3.5-4.2
		c0.7-0.8,1.3-1.5,2.1-2c1-0.7,1.8-0.7,2.7,0.1c1.4,1.3,2.5,2.8,3.5,4.4C261.2,305.5,260.9,306.5,259.9,307.3z M268.5,303.3
		c-0.3,0.3-0.7,0.4-1,0.5c-1,0.6-1.9,0.3-2.7-0.5c-0.4-0.4-0.8-0.8-1.2-1.2c-1.2-1.4-2.3-2.8-3.4-4.2c-0.9-1.1-0.8-1.7,0.2-2.5
		c1.1-0.9,2.1-1,2.9,0C265.1,297.9,267.3,300.2,268.5,303.3z M266.3,290.1c0.6-0.7,1.3-1.3,2.2-1.9c1.5,1.9,3,3.8,4.3,5.8
		c0.5,0.8,0.4,1.6,0.2,2.4c-0.1,0.6-0.5,1-1.2,1.1c-1.2,0.2-2.2,0-3-0.9c-1-1.1-1.9-2.2-2.7-3.4C265.3,292,265.3,291.2,266.3,290.1z
		 M267.2,314.2c-1.4,0.2-2.7,0.2-4.1,0.2c-0.4,0-0.9,0.1-0.9-0.6c0-0.6,0.5-0.5,0.8-0.5c1.6,0,3.1-0.3,4.7-0.3c0.4,0,0.7,0,1.1,0
		c1.5-0.2,2.6,0.2,3.5,1.6c0.4,0.7,1.1,1.1,1.9,1.4c1.5,0.6,2.4,0.5,3.1-0.5c1-1.4,1.1-2.8,0-3.8c-1.8-1.6-1.8-3.4-0.9-5.4
		c0.5-1.3,0.9-2.7,1.3-4c0.1-0.2,0.1-0.5,0.2-0.8c0.1-0.4,0.4-0.5,0.7-0.4c0.4,0.1,0.4,0.4,0.3,0.7c-0.4,1.3-0.8,2.7-1.3,4
		c-0.8,2-0.8,3.8,0.7,5.5c1.2,1.4,0.9,3,0.2,4.6c-0.2,0.4-0.5,0.7-0.9,0.8c-1.1,0.2-2.3,0.4-3.4,0.2c-0.7-0.1-1.3-0.4-1.7-1
		C271.1,314.5,269.3,314,267.2,314.2z M271.2,328.7c2-1.1,2.3-1,3.9,1.5C273.6,331.7,272.8,331.4,271.2,328.7z M278.9,329.1
		c-0.7,0.4-1.2,0.4-1.6-0.3c-0.1-0.2-0.3-0.4-0.5-0.6c-0.2-0.4-0.9-0.7-0.6-1.3c0.2-0.5,1.4-1.3,2-1.3c0.6,0,0.9,0.5,1.2,0.9
		C280.6,328.1,280.6,328.1,278.9,329.1z M284.8,324.9c-0.5,0.3-0.9,0.8-1.6,1.1c-0.7-0.9-1.3-1.7-2-2.6c0.7-0.6,1.3-1.1,2.1-1.7
		c0.6,0.8,1.1,1.5,1.7,2.2C285.4,324.3,285.3,324.6,284.8,324.9z M285.4,294.8c0,0.6-0.7,1.1-1.3,0.7c-0.6-0.4-1.2-0.8-1.6-1.4
		c-0.4-0.6,0.1-2.3,0.9-2.5c0.2-0.1,0.5,0,0.6,0.1C284.6,292.7,285,293.8,285.4,294.8z M287,265.4c4.6-1.3,7.9,0.4,9.2,4.7
		C293.5,270.5,290.4,268.5,287,265.4z M294.9,265.7c-0.2-0.5,0.1-0.6,0.5-0.8c2.2-0.7,4.1-0.5,5.8,1.1c1.2,1.1,2.1,2.5,2.9,4
		C299.8,271.5,296.3,269.7,294.9,265.7z M302,264.9c4.1-1.6,6.8,0.7,8.4,4.9c-2.6,1.2-4.1,0.9-5.9-1.2
		C303.5,267.5,302.7,266.3,302,264.9z M301.5,273.7c3.1-2.1,7.4,0.1,8.4,4.3C306.4,277.5,303.2,275.9,301.5,273.7z M316.2,278.4
		c-3.9,0.5-5.4-0.5-6.8-4.1c-0.2-0.6,0-0.7,0.5-0.9c2.3-0.8,4.5-0.1,5.9,2c0.7,1,1,1.7,1.1,2.9C316.6,278.3,316.4,278.4,316.2,278.4
		z M322.1,278.1c-1.8,0.5-3.6-0.1-4.7-1.6c-0.7-0.9-1.1-1.9-1.4-3c2.7-1.1,4.3-0.6,5.6,1.7c0.4,0.6,0.6,1.3,0.9,2
		C322.7,277.7,322.6,277.9,322.1,278.1z M327.6,275.5c0,0.3,0,0.5,0,0.8c-0.1,0.6,0.4,1.5-0.4,1.8c-1,0.3-2.1,0.3-2.9-0.5
		c-0.4-0.4-0.7-0.9-1-1.4c-0.5-0.9-1-1.8-1.3-2.9c1.5,0.1,3,0.2,4.4,0.6C327.4,274.2,327.6,274.3,327.6,275.5z M324.6,270.2
		c-4.6,0.9-7.7-2.1-8.9-5.4C319.7,265.2,321.7,268.2,324.6,270.2z M314.1,265.4c1.2,1.2,2.1,2.6,2.8,4.1c-2.5,1.1-4.5,0.7-6.1-1.2
		c-0.7-0.8-1.2-1.8-1.8-2.7c-0.3-0.6-0.1-0.8,0.5-1C311.2,263.9,312.7,264.1,314.1,265.4z M309.2,260.9c-2.6,1.1-4.5,0.6-6.1-1.4
		c-0.7-0.8-1.4-1.7-2.2-2.7C304.5,256.8,306.9,258.5,309.2,260.9z M302.6,261.1c-2.1,0.8-4,0.5-5.7-0.8c-1.5-1.1-2.5-2.6-3.5-4.1
		C296.7,255.1,300.9,257.3,302.6,261.1z M295.9,260.5c0.2,0.2,0.4,0.3,0.8,0.5c-1.8,1.1-3.5,1.4-5.2,0.8c-2-0.7-2.5-2.2-1.5-4
		c0.3-0.5,0.6-1.1,1.1-1.7C292.8,257.6,294.4,259,295.9,260.5z M291.8,233.7c-1.9,9.4-5.3,18.2-9.8,26.6c-2.6,4.8-5.4,9.4-8.4,13.9
		c-2.7,4-6,7.4-9.3,10.8c-0.8,0.8-1.5,1.6-2.1,2.7c1.1-0.9,2.2-1.7,3.3-2.6c-1.4,2.4-3.2,4.3-5.1,6.1c-2.1,1.9-4.3,3.7-6.7,5.2
		c-6,3.8-12.2,7.3-18.4,10.9c-0.9,0.5-1.8,0.8-2.8,0.8c-2.3,0.1-4.5-0.2-6.7-1.1c0.6-2.2,1.1-4.3,1.3-6.5c0.5-4.8-0.2-9.4-2.2-13.7
		c-5.3-11.7-14.4-18.6-27.1-20.7c-6.6-1.1-13.1-0.3-19.2,2.6c-5.3,2.6-9.4,6.5-12.5,11.6c-0.2,0.4-0.5,0.8-0.7,1.1
		c-0.3,0.1-0.5,0-0.6-0.1c-2-1.7-4.4-2.7-6.7-3.8c-1.1-0.5-2.4-0.8-3.6-0.8c-2.3,0-4.1-0.9-5.4-2.7c-0.5-0.7-1-1.4-1.5-2.2
		c-0.5-0.7-0.7-1.5-0.6-2.4c0.5-5-1.9-8.6-5.9-11.3c-3.3-2.2-6.9-3.4-10.8-4c-1.4-0.2-2.9-0.2-4.4-0.7c0.5-2.1,1.1-4.1,1.3-6.2
		c0.7-5.4-0.1-10.6-2.5-15.4c-5.9-11.3-15-18.1-27.8-19.8c-1.3-0.2-2.6-0.2-3.9-0.3c-1.3,0-1.3,0-1.3-1.3c-0.1-2.6,0.1-5.2,0.3-7.8
		c0.9-10.1,3.6-19.9,7.5-29.3c3.7-8.9,8.9-17,14.8-24.6c0.5-0.6,1.5-1.1,1-2.2c-0.1-0.2,0.4-0.6,0.6-0.9c2-2.5,4.3-4.7,6.8-6.7
		c2-1.6,4.2-3.2,6.3-4.7c2.6-1.9,5.3-3.8,7.9-5.7c7.4-5.4,15.4-9.2,24.4-11.2c-0.4-0.7-1.3-0.4-1.8-1c1.9-1,3.9-1.7,6-2.3
		c3.2-0.9,6.4-1.4,9.7-1.8c0.2,0,0.4,0,0.6-0.1c0.2,0,0.4-0.1,0.4-0.4c0-0.3-0.3-0.3-0.5-0.3c-0.7,0-1.4,0-2,0.1
		c-0.9,0.1-1.9,0.2-2.8,0.2c-0.4,0-0.9,0.1-1.4-0.1c3.8-2.1,19.5-3.7,27-2.5c-4.2,0.6-8.4,1.2-12.6,1.8c0,0.1,0,0.2,0,0.3
		c0.4,0,0.7,0.1,1.1,0.1c4.9,0,9.8-0.1,14.6,0.1c9.5,0.3,18.6,2.1,27.3,6.1c1.2,0.5,2.2,1.2,3.1,2.1c3.4,3.1,7.4,5.1,11.6,6.8
		c0.1,0.1,0.3,0,0.6,0c-0.3-0.7-0.8-1-1.1-1.5c-0.2-0.2-0.2-0.5,0-0.7c0.2-0.2,0.4-0.3,0.7-0.1c0.3,0.2,0.6,0.4,0.9,0.6
		c3.7,2.4,7.4,4.7,11.1,7.1c0.4,0.3,0.9,0.5,1.6,1c-0.5-1-1-1.4-1.5-1.9c-2.1-2.1-4.5-3.7-7-5.3c-5-3-10.2-5.5-15.4-8.1
		c-0.4-0.2-0.8-0.4-1.3-0.6c-0.2-0.1-0.4-0.3-0.3-0.6c0.1-0.4,0.4-0.4,0.7-0.2c1.4,0.5,2.8,1,4.1,1.6c10.8,4.4,20.2,10.8,28.4,19
		c9.4,9.3,16.7,19.9,21.6,32.2c0.3,0.3,0.5,0.7,0.7,1c-0.1-0.3-0.2-0.5-0.3-0.8c-0.1-0.2,0-0.6,0.3-0.8c0.6-0.2,0.8,0.1,1,0.6
		c0.8,2.3,1.6,4.5,2.4,6.8c0.5,1.4,1,2.8,1.5,4.3c0.1,0.3,0.4,0.7-0.1,0.9c-0.6,0.2-0.7-0.3-0.8-0.6c-0.7-2-1.5-4-2.2-6
		c-0.2-0.3-0.4-0.7-0.6-1c0.1,0.6,0.2,1.1,0.3,1.7c0.5,2.2,1.3,4.4,2.2,6.5c1.8,4.4,2.7,9,3,13.7c0.2,3.8,0.4,7.6,1.4,11.3
		c0.3,1.4,0.2,2.8,0.3,4.2C293.8,218.5,293.3,226.2,291.8,233.7z M307.9,245.4c-0.2,0-0.3,0-0.5,0.1c-0.8,0.1-1.6,0.1-2.7,0.2
		c0.3-0.9,0.5-1.6,1.3-1.7c0.8-0.1,1.6,0.2,2.2,0.7C308.6,245,308.4,245.3,307.9,245.4z M306.7,224.4c0,0,0-0.1,0.1-0.1
		c2.3-1.7,1.5-2,4.5,0.2C309.4,226.1,308.8,226.1,306.7,224.4z M317.3,233.6c-1,0.1-2,0.4-3,0.2c-0.1-0.5,0.2-0.8,0.3-1.2
		c0.1-0.5,0.4-0.7,0.9-0.6c0.6,0,1.2,0.1,1.9,0.1c0.6,0,0.8,0.4,0.8,0.9C318.2,233.7,317.8,233.6,317.3,233.6z M318.2,229.6
		c-2.1,1.3-1.6,1.7-3.3-0.5c1.3-1.2,1.8-1.2,3.5,0.3C318.3,229.4,318.3,229.5,318.2,229.6z M314.9,225.5c1.8-1.9,1.4-1.8,3.4,0.1
		C316.8,226.9,316.5,226.9,314.9,225.5z M318.2,222.9c-1-0.1-2-0.2-2.9-0.4c-0.3,0-0.4-0.3-0.3-0.6c0-0.3,0.1-0.5,0.4-0.5
		c0.5,0,1,0,1.6,0c0,0,0,0,0,0c0.4,0,0.8,0,1.2,0c0.4,0,0.7,0.2,0.7,0.6C318.9,222.5,318.7,222.9,318.2,222.9z M318.8,218
		c-0.7,1.6-2.3,2.2-3.6,1.4c-0.3-0.2-0.3-0.5-0.2-0.8c0.1-0.4,0.1-1,0.8-0.9c0.1,0,0.2,0,0.3,0C317,217.8,317.9,217.9,318.8,218z
		 M314.5,215.6c1.3-1.4,1.6-1.3,3.4,0C315.8,217.5,316.4,217.3,314.5,215.6z M317.8,212.8c-1.9,1.5-1.6,1.7-3.5-0.3
		C315.5,211.3,315.7,211.3,317.8,212.8z M317.6,236.3c-1.8,2-1.7,1.6-3.5,0.2C315.5,235,315.7,235,317.6,236.3z M316.2,239.1
		c0.4,0.2,0.9,0.5,1.3,1.1c-1.5,0.1-2.8,0.5-4.2,0.3C313.9,238.5,314.6,238.2,316.2,239.1z M315.7,241.7c0.4,0.2,0.6,0.4,0.6,0.8
		c0,0.5-0.4,0.5-0.8,0.5c-0.6,0.1-1.1,0.2-1.7,0.3c-0.5,0.1-0.9,0.1-1.5,0.2C313.1,241.5,314,241.1,315.7,241.7z M307,213.6
		c1.6-1.4,2-1.4,4.5,0.4c-0.5,0.7-1.4,0.9-2,1.6c0.5,0.7,1.4,0.9,1.9,1.5c-1.5,1.6-2.4,1.6-4.5,0.1c0.6-0.6,1.3-1.2,1.9-1.8
		C308.3,214.6,307.4,214.3,307,213.6z M311.5,220.7c-0.7,0.8-1.6,1.3-2.4,1.9c-0.8-0.6-1.5-1.2-2.3-1.9
		C308.8,219.2,309,219.2,311.5,220.7z M310.9,228.5c0,0,0,0.1-0.1,0.1c-2.8,1.9-1.9,1.7-4.2-0.3
		C308.5,226.8,308.9,226.8,310.9,228.5z M306.7,231.1c0.8-0.6,1.7-0.3,2.5,0.1c0.5,0.3,1,0.5,1.4,1.1c-1.4,0.5-2.7,0.9-4,1.4
		c-0.1-0.1-0.2-0.2-0.3-0.3C306.1,232.6,306,231.7,306.7,231.1z M306.1,235.6c2.1-1.8,1.3-2.2,4.1,0.4c-1.8,1.4-2.3,1.4-4.2-0.1
		C306,235.8,306,235.7,306.1,235.6z M309.8,239.7c-2.5,1.7-1.6,1.9-4.1-0.2C306.7,238,307.9,237.8,309.8,239.7z M309,241.8
		c-0.4,1.5-0.4,1.5-1.8,1.5c-0.9,0-1.7,0-2.7,0C306,241.1,306.1,241,309,241.8z M299.4,230c0.8-0.4,1.5-0.1,2.2,0.5
		c0.3,0.2,0.6,0.4,0.8,0.9c-1.1,0.5-2.1,1-3.4,1.1c0-0.3-0.1-0.5-0.1-0.7C298.8,231.1,298.7,230.3,299.4,230z M298.4,233.4
		c1.2,0.2,2.3,0.7,3.5,1c0.3,0.1,0.6,0.2,0.6,0.6c0,0.4-0.3,0.5-0.6,0.6c-1.2,0.3-2.5,0.5-3.8,0.8
		C297.9,235.3,298.2,234.4,298.4,233.4z M300.6,242.3c-0.7,0-1.4,0.1-2.2,0.1c-0.3,0-0.6,0-0.7-0.4c0-0.5,0.1-0.8,0.7-0.8
		c1.1,0,2.3-0.1,3.5-0.2C301.9,241.9,301.5,242.3,300.6,242.3z M302.6,238.9c0,0.4-0.2,0.6-0.5,0.6c-0.6,0-1.1,0-1.7,0
		c0,0,0,0.1,0,0.1c-0.5,0-0.9,0-1.4,0c-0.6,0-1-0.3-1-0.9c-0.1-0.6,0.4-1.4,1-1.3c1.1,0.1,2.3,0.3,3.4,0.6
		C302.7,238.1,302.5,238.6,302.6,238.9z M300.8,210.6c0.2-0.2,0.4-0.2,0.7-0.1c0.6,0.4,1.3,0.9,1.9,1.3c-0.2,0.3-0.2,0.4-0.3,0.4
		c-1.3,1-2.3,0.6-2.7-0.9C300.3,211,300.6,210.8,300.8,210.6z M300.8,214.1c0.2-0.3,0.5-0.3,0.8,0c0.5,0.4,1,0.8,1.5,1.2
		c0,0.4-0.2,0.5-0.4,0.6c-1,0.7-2.2,0.1-2.4-1C300.3,214.4,300.6,214.3,300.8,214.1z M300.2,219.6c0.5-1.3,1.6-1.7,2.7-0.8
		c0.2,0.2,0.5,0.4,0.7,0.6c-0.7,0.6-1.6,0.8-2.3,1.2c-0.3,0.2-0.6,0.1-0.8-0.2C300.3,220.2,300,219.9,300.2,219.6z M302.1,222.3
		c0.5,0.3,1,0.5,1.3,1.2c-1,0.4-2,0.8-3.2,1.3c0-0.6-0.1-1-0.1-1.3C300,222.1,300.8,221.6,302.1,222.3z M299.6,225.6
		c1.1,0.1,1.9,0.6,2.8,0.9c0.3,0.1,0.5,0.4,0.5,0.7c0,0.4-0.3,0.6-0.6,0.6c-0.9,0.2-1.8,0.5-3,0.5
		C299.5,227.4,299.5,226.5,299.6,225.6z M305.1,180.2c0.3-0.5,0.6-0.9,1-1.5c-0.7-0.3-1.3-0.5-2.2-0.8c0.6-0.7,1.1-1.3,1.6-2
		c-0.6-0.7-1.5-0.7-2.1-1.2c1.7-2,2.9-2.3,5.6-1.5c-0.2,0.9-1.1,1.4-1.4,2.4c0.9,0,1.6,0.2,2.3,0.7c-0.4,1.1-1.3,1.6-2.4,2.2
		c1,0.2,1.8,0,2.6,0.4c0.6,0.3,0.8,0.7,0.3,1.2c-0.1,0.1-0.1,0.2-0.2,0.3c-0.7,0.8-3.5,1.5-4.5,1.1
		C304.6,181.1,304.6,181,305.1,180.2z M310.8,183.3c-1.2,0.6-2.3,1.2-3.5,1.7c-0.6,0.3-1.6-0.2-1.8-0.9c-0.2-0.6,0.2-1.4,0.9-1.6
		c0.5-0.2,1.1-0.2,1.7-0.3c0.8-0.1,1.6-0.1,2.1-0.2c0.6-0.1,1-0.1,1.1,0.4C311.5,183,311.1,183.1,310.8,183.3z M311.5,170
		c-0.2-0.3-0.2-0.6,0-0.9c0.2-0.3,0.4-0.6,0.8-0.6c1.4-0.3,2.8-0.6,4.1-0.9c0.5-0.1,0.8,0,0.9,0.5c0.2,0.6-0.2,0.7-0.6,0.9
		c-1.4,0.4-2.8,0.9-4.2,1.3c-0.1,0-0.2,0-0.3,0.1C312,170.4,311.7,170.3,311.5,170z M312.3,172.7c-0.3-0.2-0.3-0.5-0.1-0.8
		c0.2-0.4,0.4-0.8,0.9-1c1-0.3,2-0.6,3-0.8c0.7-0.1,1.2,0.5,1.9,0.9c-1,1.9-2.8,2.1-4.5,2.3C313.1,173.4,312.7,173,312.3,172.7z
		 M312.7,175.3c-0.1-0.6,0.2-1,0.9-1.1c1.3-0.3,2.7-0.5,4-0.8c0.3-0.1,0.6-0.1,0.9,0.1c0.4,0.3,0.7,0.7,0.2,1.1
		c-0.1,0.1-0.2,0.2-0.3,0.3c-1.3,0.7-2.8,1.1-4.2,1.4C313.3,176.4,312.7,175.9,312.7,175.3z M313.4,178.7c0.1-0.8,0.4-1.5,1.4-1.8
		c1.5-0.3,3-1.5,4.5,0.2C318,179.2,315.3,179.9,313.4,178.7z M347.3,159.3c1.5-0.4,3-0.5,4.5-0.7c0.3-0.1,0.5,0.2,0.6,0.4
		c0.1,0.3,0,0.5-0.2,0.7c-0.4,0.2-0.9,0.4-1.3,0.6c-0.8,0.4-1.7,0.8-2.5,1.2c0,0.1,0,0.2,0,0.2c1-0.1,1.9-0.3,2.9-0.4
		c0.6-0.1,1.2-0.2,1.5,0.5c0.2,0.5-0.2,1.2-1,1.5c-1,0.5-2.1,0.9-3.2,1.1c-1.4,0.2-1.9-0.2-1.7-1.6c0.1-0.6-0.1-1.1-0.3-1.6
		C345.9,160.1,346.1,159.5,347.3,159.3z M320.7,170.3c0.5-0.7,1-1.3,1.6-2.1c-0.8-0.1-1.6,0-1.8-1c-0.1-0.5-0.1-0.8,0.4-1
		c1.8-0.9,3.6-1.2,5.8-0.3c-1.3,0.7-2.5,1.4-3.7,2c1.2,0.5,2.3,0.3,3.6,0.6c-1.2,1-2.3,1.6-3.6,2.1
		C322.2,171.1,321.5,170.7,320.7,170.3z M321.8,172.2c1.7-0.5,3.5-0.9,5.3-1.1c0.2,0,0.5,0.2,0.7,0.3c-0.3,1-1,1.4-1.7,1.6
		c-1,0.3-2.1,0.7-3.1,1c-0.5,0.2-1,0.1-1.4-0.3C321.1,173.2,321.2,172.4,321.8,172.2z M322.2,176.5c-0.2-0.5,0.2-1.2,0.6-1.5
		c1-0.7,2.3-0.8,3.4-1c0.8-0.1,1.2,0.5,1.9,0.8c-1.1,1.9-2.9,2.1-4.7,2.4C323,177.3,322.4,177,322.2,176.5z M328.6,182.2
		c-1.3,0.6-2.5,1.2-4,0.9c-0.7-0.1-1.1-0.4-0.8-1.1c0.4-1,0.1-1.7-0.6-2.4c-0.4-0.4-0.4-0.7,0-1.1c0.5-0.4,1-0.7,1.6-0.8
		c1.2-0.1,2.3,0,3.6,0.1c-1.1,1.1-2.4,1.8-3.6,2.8c1.2-0.1,2.1-0.2,3.1-0.3c0.5,0,1.1,0,1.3,0.6C329.6,181.6,329.2,182,328.6,182.2z
		 M329.4,167.5c-0.1-0.7,0.4-1,1-1.2c0.4-0.1,0.8-0.2,1.2-0.7c-0.9,0-1.6,0-2.2,0c-0.6,0-0.8-0.5-0.5-1c0.4-0.6,1.1-1,1.8-1.2
		c1.2-0.4,2.4-0.4,3.6-0.3c0.3,0,0.5,0.1,0.6,0.4c0,0.3-0.1,0.5-0.4,0.6c-0.7,0.4-1.3,0.8-2.1,1.4c1.1,0.3,2.1,0.6,3,0.8
		c-1.1,1.9-2.7,2.3-4.7,2.1C330,168.4,329.4,168.3,329.4,167.5z M330.2,170.9c0.3-1.2,1.3-1.6,2.4-1.9c1.2-0.3,2.4-0.6,3.5,0.4
		C334.7,171.8,332.2,172.5,330.2,170.9z M330.8,174c0-0.6,0.1-1.2,0.8-1.3c1.4-0.3,2.9-0.6,4.3-0.9c0.5,0,0.9,0.2,1.1,0.6
		c0.3,0.5-0.2,0.8-0.5,1c-1.3,0.8-2.8,1.3-4.4,1.6C331.5,175.2,330.8,174.6,330.8,174z M331.5,177.1c-0.2-0.6,0.2-1.1,1-1.3
		c1.4-0.3,2.7-0.6,4.1-0.9c0.6-0.1,0.9,0.3,1.1,0.7c0.3,0.5-0.3,0.7-0.6,0.9c-1.2,0.9-2.7,1.2-4.2,1.5
		C332.2,178.2,331.7,177.8,331.5,177.1z M332.2,180c1.4-0.8,2.8-1.6,4.2-2.4c0.3-0.2,0.6-0.2,0.8,0.1c0.3,0.4,0.8,0.6,1,1.3
		c-1.3,0.7-2.7,1.3-4,2C333.3,181.4,332.8,180.7,332.2,180z M338.3,182.5c-1.1,0.4-2.3,0.7-3.4,1c-0.3,0.1-0.6,0.2-0.9,0.2
		c-0.4,0-0.8-0.2-1-0.7c-0.1-0.5,0.2-0.8,0.6-1c1.2-0.6,2.4-1.1,4-1c-0.1,0,0.2,0,0.5,0c0.5,0,0.9,0.2,1,0.8
		C339.2,182.4,338.6,182.4,338.3,182.5z M339.4,169.3c-0.3-0.4-0.1-1.6,0.2-2.1c0.3-0.3,0.8-0.2,0.9-0.8c-0.1,0-0.3-0.1-0.4-0.1
		c-0.6,0-1.2,0-1.7-0.4c-0.5-0.4-0.1-1.1,0-1.6c0.1-0.8-0.6-1.3-0.7-2.1c1.6-0.5,3.2-1.1,4.9-1.6c0.4-0.1,0.7-0.1,0.9,0.3
		c0.2,0.4,0,0.6-0.2,0.8c-0.4,0.4-0.9,0.6-1.1,1.2c0.8,0.2,1.4,0.6,2,1.1c-0.2,1.3-1.4,1.6-2.6,2.4c1.2,0.2,2.2,0.4,3.2,0.6
		c0.1,0.9-0.3,1.3-1,1.5c-1,0.2-2,0.6-3,0.8C340.2,169.4,339.8,169.8,339.4,169.3z M339.4,171.6c1-0.6,1.8-1.1,2.6-1.6
		c1.8-1.1,1.8-1.1,3.5,0.4c-1.4,0.9-2.8,1.6-4.2,2.2C340.4,172.9,340.1,172.1,339.4,171.6z M341.1,178c0.6-0.6,1.1-1.2,1.7-1.9
		c-0.8-0.2-1.6-0.1-2.1-0.7c-0.6-0.6-0.7-1.2,0.1-1.7c1.4-0.8,3-0.9,4.5-1c0.4,0,0.8,0.3,1,0.7c0.1,0.4-0.2,0.8-0.5,1
		c-0.6,0.4-1.3,0.8-2.3,1.3c1.3,0.2,2.3,0.4,3.4,0.6C345.3,178.4,343.9,178.8,341.1,178z M347.4,180c-1.5,0.5-3.1,0.9-4.6,1.4
		c-0.4,0-0.8-0.2-1-0.5c-0.2-0.3,0.1-0.6,0.3-0.8c0.2-0.3,0.5-0.5,0.9-0.6c1.3-0.3,2.7-0.5,4-0.8c0.5-0.1,0.6,0.2,0.7,0.6
		C347.7,179.5,347.8,179.9,347.4,180z M347.7,166.6c-0.3-0.5,0-1.3,0.6-1.5c1.3-0.5,2.7-0.7,4-1c0.6,0,1,0.2,1.2,0.7
		c0.2,0.5-0.1,1-0.5,1.2c-1.3,0.6-2.6,1.1-3.9,1.6C348.4,167.8,348,167.1,347.7,166.6z M348.4,169.8c-0.2-0.5,0.1-1.4,0.8-1.7
		c1.4-0.6,2.8-0.8,4.3-0.8c0.5,0,0.9,0.3,0.9,1.2c0,0.3-0.4,0.6-0.9,0.8c-1.1,0.4-2.1,0.8-3.2,1.2
		C349.6,170.8,348.7,170.4,348.4,169.8z M349.1,172.7c-0.4-0.5,0-0.9,0.3-1.2c0.2-0.2,0.5-0.4,0.8-0.5c1.1-0.2,2.2-0.5,3-0.6
		c0.5,0,0.7,0,0.8,0c0.5,0.1,0.9,0.4,1,0.8c0.1,0.4-0.3,0.8-0.7,1c-1.2,0.5-2.5,1.1-3.8,1.5C349.9,173.9,349.5,173.2,349.1,172.7z
		 M356.4,176.8c0.2,0.3,0.5,0.7,0,0.9c-1.6,0.6-3.3,1-4.6,1.4c-0.7,0-1.1-0.1-1.3-0.6c-0.1-0.4-0.1-0.8,0.3-1
		c1.5-0.6,2.9-1.4,4.6-1.1C355.8,176.5,356.2,176.5,356.4,176.8z M355.7,174.4c-1.3,0.8-2.7,1.4-4.1,1.9c-0.7,0.3-0.7,0.2-1.8-1
		c1.3-0.8,2.6-1.5,3.9-2.3c0.3-0.2,0.6-0.1,0.8,0.1C354.8,173.6,355.4,173.8,355.7,174.4z"/>
	<path class="st0" d="M285.4,168.5c-0.3,0.5,0,1,0.2,1.5c0.5,1.5,1,3,1.6,4.5c-0.2,0.2-0.2,0.4-0.3,0.7c-0.8-2-1.5-4-2.1-6
		C285,169,285,168.5,285.4,168.5z"/>
	<path class="st0" d="M294.7,222c0.2,0.5-0.1,1.1,0.3,1.5c0,1.1,0,2.2-0.6,3.2l0,0C294.3,225.1,294.3,223.5,294.7,222z"/>
	<path class="st0" d="M294.4,226.7c0.2,0.6,0,1.1-0.1,1.9C294.1,227.8,293.9,227.2,294.4,226.7L294.4,226.7z"/>
	<path class="st0" d="M95.7,281c-2.8-8.9-9.4-14.2-18.3-14.6c-5.7-0.3-10.6,1.7-14.3,6.2c-2.8,3.5-5.1,7.3-6.8,11.4
		c-4.6,11.2-5.1,22.7-3,34.4c0.8,4.4,2.6,8.3,5.6,11.7c7.6,8.6,19.6,8.9,27.6,0.6c2.3-2.4,4.2-5.2,5.7-8.2
		c3.9-7.8,5.8-16.1,5.8-24.9C98.1,291.9,97.2,285.7,95.7,281z M77.2,314.6c-0.5,1.1-1.1,2.1-2.1,2.9c-2.3,1.8-4.8,0.9-5.5-1.9
		c-0.8-3.3-0.9-6.7-0.2-10.1c1.2-6.1,2.6-12.2,4-18.3c0.1-0.5,0.2-1,0.4-1.5c0.4-1.1,1.2-1.9,2.5-1.9c1.3,0,2.3,0.5,2.9,1.7
		c0.4,0.8,0.5,1.6,0.6,2.4c0.4,3.4,0.7,6.7,0.9,9.3C80.5,303.8,79.7,309.4,77.2,314.6z"/>
	<path class="st0" d="M33,386.7c0-0.2-0.1-0.4-0.1-0.6c-1.5-7.9-3-15.9-4.6-23.8c-0.3-1.7-0.6-3.5-1.2-5.2c-0.7-2-2-3.2-4.3-3.4
		c-1.1-0.1-2.1,0-3.1,0c-2.4,0.1-4,1.4-4.8,3.6c-3,8.5-6.1,17-9.1,25.5c-0.3,1-0.6,2-0.8,3c-0.3,1.3,0.1,1.9,1.4,2.2
		c1.8,0.4,3.6,0.6,5.5,0.4c1.5-0.1,2.5-1,2.8-2.5c0.1-0.3,0.1-0.6,0.2-0.9c0.3-1.3,1-2.2,2.4-2.4c1.4-0.3,2.9-0.6,4.3-0.8
		c1.2-0.2,1.3-0.2,1.5,1.1c0.2,1.2,0.3,2.4,0.6,3.5c0.3,1.5,0.9,1.9,2.4,2.1c0.9,0.1,1.9,0,2.8,0c0,0,0,0,0,0.1c0.4,0,0.8,0,1.3,0
		c0.4,0,0.8,0,1.3,0C32.8,388.6,33.2,388.2,33,386.7z M18.1,374.1c0-1,0.5-1.9,0.7-2.8c0.3-1.1,0.7-2.2,1-3.3
		c0.1-0.3,0.1-0.8,0.6-0.7c0.4,0.1,0.3,0.5,0.4,0.8c0.3,1.9,0.6,3.8,0.9,5.8C20.5,374.1,19.3,374.2,18.1,374.1z"/>
	<path class="st0" d="M87.7,369.1c-0.4-3.2-0.8-6.5-2-9.6c-2.7-7.3-11.9-9-17.1-3.2c-0.9,1-1.6,2.1-2.2,3.2
		c-3.8,6.4-4.1,13.4-2.9,20.4c0.9,5.3,5.2,8.7,10.4,8.7c5,0,9.4-3.1,11.2-7.9c0.9-2.5,1.4-5,1.9-7.6
		C87.2,371.9,87.9,370.4,87.7,369.1z M78.8,369.3c-0.3,3-1,5.9-1.9,8.8c-0.2,0.5-0.5,0.9-1,1.2c-0.6,0.4-1.1,0.7-1.7,1.1
		c-1.8-1.2-2.4-2.9-2.4-5c-0.1-4.3,0.3-8.4,1.7-12.5c0.4-1.1,1-2,2-2.7c0.7-0.5,1.2-0.4,1.8,0.1c0.6,0.6,1,1.3,1,2
		C78.6,364.8,79,367.1,78.8,369.3z"/>
	<path class="st0" d="M216.2,201.4c-1.4,1.4-2.3,3.1-3.8,4.7c-1.5-1.6-2.9-3.2-4.3-4.7c-0.6,0.2-0.3,0.6-0.3,0.9c0,2.3,0,4.7,0,7
		c0,1.1,0,1.1-1.1,1.1c-3,0-2.4,0.4-2.4-2.3c0-4.6,0-9.2,0-13.8c0-0.5-0.3-1.3,0.4-1.5c0.7-0.2,0.9,0.5,1.3,0.9
		c2.1,2.1,4.1,4.3,6.1,6.5c0.6,0,0.7-0.5,1-0.8c1.8-1.9,3.5-3.9,5.3-5.8c0.2-0.3,0.5-0.6,0.8-0.8c0.4-0.3,0.7-0.1,0.8,0.3
		c0.1,0.3,0,0.5,0,0.8c0,5.1,0,10.2,0,15.3c0,1.3,0,1.2-1.2,1.2c-2,0-2,0-2-2c0-2,0-4,0-5.9C216.7,202.1,216.8,201.7,216.2,201.4z"
		/>
	<path class="st0" d="M175.5,202.5c0-1.7,0-3.3,0-4.9c0-1.2,0-2.4,0-3.6c0-0.7,0.3-0.9,0.9-0.9c2.6-0.1,2.6-0.1,2.6,2.4
		c0,4.6,0,9.2,0,13.8c0,0.3,0,0.6,0,0.9c0,0.3,0,0.5-0.2,0.7c-0.4,0.2-0.6-0.1-0.8-0.3c-1.9-2-3.8-4.1-5.6-6.1
		c-0.9-0.9-1.8-1.9-2.6-2.8c-0.5,0.3-0.3,0.7-0.3,1c0,2.2,0,4.4,0,6.6c0,1.1,0,1.2-1.1,1.1c-2.8,0-2.3,0.4-2.3-2.3
		c0-4.5,0-9.1,0-13.6c0-0.3,0-0.5,0-0.8c0-0.4-0.2-0.9,0.4-1.1c0.4-0.1,0.6,0.3,0.8,0.6c2.5,2.8,4.9,5.6,7.3,8.4
		C174.7,201.9,174.9,202.3,175.5,202.5z"/>
	<path class="st0" d="M117.6,201.8c0-2.5,0-5,0-7.5c0-1.1,0-1.2,1.1-1.2c2.1,0,4.3,0,6.4,0c0.7,0,1,0.2,1,0.9c0,2.3,0.1,2.3-2.3,2.3
		c-0.6,0-1.3,0-1.9,0c-0.6,0-0.7,0.2-0.7,0.7c-0.2,2.7-0.2,2.7,2.5,2.9c1.8,0.1,1.8,0.1,1.8,1.9c0,0.2,0,0.3,0,0.5
		c0.1,0.8-0.2,1.2-1,1.1c-0.8,0-1.7,0.1-2.5,0.1c-0.5,0-0.8,0.3-0.7,0.8c0,0.1,0,0.1,0,0.2c-0.1,2.4-0.1,2.4,2.2,2.4
		c0.2,0,0.3,0,0.5,0c2.7,0,2.8,0.2,2.5,2.9c-0.1,0.5-0.3,0.6-0.7,0.6c-2.5,0-4.9,0-7.4,0c-0.7,0-0.7-0.4-0.7-0.9
		C117.6,207,117.6,204.4,117.6,201.8z"/>
	<path class="st0" d="M261.8,209.7c0.1-0.9,0.2-1.6,0.3-2.3c0.2-1.2,0.3-1.2,1.4-1c1.1,0.2,2.1,0.5,3.2,0.6c0.8,0,1.4-0.3,1.9-0.9
		c0.4-0.4,0.4-0.8,0.1-1.3c-0.5-0.7-1.2-1.2-1.9-1.6c-0.8-0.4-1.5-0.7-2.3-1.1c-2.1-1.3-2.9-3.2-2.3-5.5c0.6-2.2,2.3-3.6,4.6-3.8
		c1.3-0.1,2.6,0.2,3.9,0.5c0.2,0,0.3,0.1,0.4,0.2c0.2,0.2-0.1,2.9-0.3,3c-0.2,0.1-0.4,0.1-0.6,0.1c-0.4,0-0.8-0.1-1.2-0.2
		c-0.5,0-0.9-0.1-1.4-0.1c-0.8,0.1-1.5,0.4-1.7,1.1c-0.2,0.7,0.2,1.5,0.8,1.9c0.5,0.4,1.1,0.7,1.6,1c0.8,0.4,1.6,0.8,2.3,1.3
		c1.9,1.2,2.5,3.2,1.7,5.5c-0.7,2.2-2.1,3.3-4.4,3.3c-0.9,0-1.9,0-2.8-0.2C264.1,210.1,262.9,210.2,261.8,209.7z"/>
	<path class="st0" d="M183.5,167c0,1.9,0,3.8,0,5.7c0,1.6,0,1.6-1.6,1.6c-0.2,0-0.3,0-0.5,0c-0.7,0.1-0.9-0.2-0.9-0.9
		c0-1.9,0-3.9,0-5.8c0-2.6,0-5.1,0-7.7c0-0.3-0.1-0.7,0.2-0.8c0.5-0.2,0.6,0.2,0.8,0.5c2,2.3,4.1,4.6,6.1,7c0.2,0.2,0.4,0.5,0.6,0.7
		c0.5-0.2,0.3-0.7,0.3-1c0-1.9,0.1-3.9,0-5.8c0-0.8,0.3-1,1-0.9c2.4,0.1,1.9-0.3,1.9,1.8c0,4,0,7.9,0,11.9c0,0.5,0,1,0,1.9
		c-1.5-1.6-2.8-3-4-4.4c-1.2-1.3-2.5-2.7-3.7-4C183.7,166.9,183.6,166.9,183.5,167z"/>
	<path class="st0" d="M141.3,206.6c0.2,0.9,0.3,1.7,0.4,2.4c0.1,0.5-0.1,0.8-0.6,0.9c-3.2,1-6.3,1-8.9-1.3c-2.7-2.3-3.8-5.4-3-8.9
		c1.3-5.5,5.3-7.4,10.5-6.9c1.2,0.1,1.6,0.7,1.5,1.9c0,0.2-0.1,0.3-0.1,0.5c-0.2,1.5-0.2,1.4-1.6,1.2c-0.5-0.1-1-0.1-1.6-0.2
		c-3.5-0.2-5.2,2.9-5.3,5.3c0,2.4,1.8,5.4,5.2,5.4C139.1,207,140.1,206.6,141.3,206.6z"/>
	<path class="st0" d="M243.1,206.5c0.1,0.4,0.2,0.7,0.3,1c0.4,2.3,0.3,2.5-2.1,2.9c-4.1,0.6-7.4-0.9-9.3-4.4
		c-1.8-3.3-1.3-7.7,1.3-10.5c1.4-1.5,3.1-2.3,5.1-2.6c1.1-0.2,2.2-0.1,3.3,0c1.3,0.1,1.6,0.6,1.6,1.9c0,0.3,0,0.5-0.1,0.8
		c-0.2,1.2-0.2,1.2-1.4,1c-0.4-0.1-0.7-0.2-1.1-0.2c-3.4-0.3-6,2-5.9,5.3c0,3.2,2.6,5.5,5.9,5.2
		C241.3,206.9,242.1,206.7,243.1,206.5z"/>
	<path class="st0" d="M227.1,170.6c1.1,0.2,2,0.4,2.8,0.6c0.5,0.1,0.9,0.1,1.4,0.1c0.7,0.1,1.4-0.2,1.7-0.9c0.3-0.7-0.3-1.2-0.7-1.6
		c-0.4-0.4-0.9-0.6-1.3-0.8c-0.6-0.3-1.2-0.6-1.8-1c-1.6-1.2-2.1-2.7-1.7-4.4c0.5-1.9,2-3.2,3.9-3.3c1.1-0.1,2.2,0.2,3.3,0.4
		c0.5,0.1,0.7,0.4,0.6,0.9c-0.1,0.4-0.2,0.8-0.2,1.2c0,0.5-0.3,0.6-0.7,0.6c-0.8,0.1-1.7,0.2-2.5,0.3c-0.6,0.1-1.1,0.3-1.2,1
		c-0.1,0.7,0.3,1.1,0.9,1.3c0.4,0.2,0.8,0.3,1.2,0.5c1.1,0.4,2,1.1,2.8,1.9c1.6,1.9,1.3,4.5-0.7,5.9c-1.6,1.1-3.4,1.3-5.3,0.9
		c-1.1-0.3-1.8-0.9-2-2.1C227.3,171.7,227.2,171.3,227.1,170.6z"/>
	<path class="st0" d="M201.8,159.4c0.6,0,1.3,0.1,2.1,0.3c0.7,0.1,1.1,0.4,0.9,1.1c-0.1,0.3-0.1,0.5-0.1,0.8c0,0.7-0.2,0.9-0.9,0.9
		c-1.1,0-2.2,0-3.3,0.3c-2.1,0.6-3,1.9-2.9,4.2c0.1,2.3,1.1,3.5,3.3,3.9c1,0.2,2.1,0.3,3.1,0.2c0.6-0.1,0.9,0.1,1,0.8
		c0.2,1.5,0.2,1.7-1.4,2.1c-4.7,1.3-9.6-2-9.2-7.8C194.7,162.1,197.7,159.4,201.8,159.4z"/>
	<path class="st0" d="M170,166.8c0-2.1,0-4.2,0-6.3c0-0.6,0.2-0.9,0.9-0.9c1.8,0,3.6,0.1,5.3,0c0.8,0,1,0.3,0.9,1c0,0.3,0,0.5,0,0.8
		c0.1,0.7-0.2,1-1,1c-0.8,0-1.7,0.1-2.5,0.1c-0.5,0-0.8,0.2-0.7,0.7c0,0.1,0,0.2,0,0.3c0,1.7,0,1.7,1.7,1.8c0.3,0,0.5,0,0.8,0.1
		c1.1,0.1,1.1,0.1,1.1,1.2c0,1.9,0.1,1.6-1.7,1.8c-0.3,0-0.6,0.1-0.9,0c-0.9-0.1-1,0.4-1,1.1c0.1,2-0.2,1.6,1.7,1.7c0.5,0,1,0,1.6,0
		c1.3,0,1.3,0,1.4,1.4c0,0.3,0,0.6,0.1,0.9c0,0.4-0.2,0.6-0.5,0.6c-2.1,0-4.3,0-6.4,0c-0.7,0-0.6-0.4-0.6-0.9
		C170,171.1,170,169,170,166.8z"/>
	<path class="st0" d="M160.3,162.5c-0.8,0.1-1.5-0.1-2.1-0.2c-2.2-0.2-3.9,0.9-4.7,2.9c-0.7,1.9,0,4.2,1.7,5.4
		c1.1,0.8,2.4,0.7,3.6,0.6c0.4,0,0.7-0.2,1.1-0.2c0.2,0,0.4-0.1,0.5,0c0.6,0.6,0.3,1.4,0.5,2c0.1,0.5-0.3,0.6-0.6,0.7
		c-4.2,1.5-8.6-0.3-9.9-4.7c-0.5-2-0.4-3.9,0.5-5.8c1.6-3.3,5.2-4.6,8.9-3.5c0.4,0.1,0.7,0.4,0.6,0.9
		C160.4,161.2,160.3,161.8,160.3,162.5z"/>
	<path class="st0" d="M227.6,201.8c0,2.6,0,5.1,0,7.7c0,0.7-0.2,1-0.9,1c-2.3,0-2.3,0.1-2.3-2.3c0-4.6,0-9.2,0-13.7
		c0-1.3,0-1.3,1.2-1.3c2.4,0,2-0.3,2,1.9C227.7,197.3,227.6,199.6,227.6,201.8z"/>
	<path class="st0" d="M237.3,227c-1,0-1.9-0.2-2.8-0.1c-0.9,0.1-1.3-0.2-1.5-1c-0.3-1.2-0.3-1.2,0.9-1.6c0.9-0.2,1.7-0.5,2.6-0.5
		c3,0,4.6,2.4,3.4,5.1c-0.5,1-1.1,2-1.7,3c-0.3,0.6-0.7,1.1-1.2,1.9c1,0.1,1.8,0.1,2.6,0.2c0.9,0.1,0.9,0.2,0.9,1.4c0,0.8-0.2,1-1,1
		c-2.3,0-4.6,0-7,0C234,233.2,236.8,230.7,237.3,227z"/>
	<path class="st0" d="M266.5,232.8c-0.6-1.1-1.7-1.9-2.6-3c0.8-0.7,1.7-1.4,2.6-2.2c-1.2-0.8-2.3-1.1-3.4-1.5
		c-0.5-0.2-1.1-0.4-1-1.2c0.1-0.7,0.7-0.9,1.3-0.9c0.5-0.1,0.9-0.1,1.4-0.1c3.3,0,4.8,2,4.1,5.1c-0.2,0.7-0.2,1.3,0.1,2
		c0.3,0.8,0.5,1.6,0.4,2.4c-0.1,1.4-0.6,2.1-1.9,2.5c-1.6,0.5-3.2,0.2-4.8,0.2c-0.4,0-0.5-0.3-0.6-0.6c0-0.5-0.1-0.9-0.1-1.5
		C263.4,233.6,265.3,234.7,266.5,232.8z"/>
	<path class="st0" d="M257.1,233.9c0.7,0,1.4,0.1,2.1,0.1c0.7,0,1,0.2,0.9,0.9c0,0.3,0,0.5,0,0.8c0,0.5-0.1,0.8-0.7,0.8
		c-2.3,0-4.7,0-7.2,0c1.5-3.3,4.4-5.8,4.7-9.6c-1.3-0.2-2.6-0.1-3.9,0.2c-0.1-0.2-0.1-0.3-0.1-0.4c0.2-2,0.2-2.1,2.3-2.3
		c0.4,0,0.8-0.1,1.3-0.1c2.8,0,4.4,2.5,3.1,5.1c-0.6,1.2-1.4,2.3-2,3.5C257.3,233.1,257,233.4,257.1,233.9z"/>
	<path class="st0" d="M166.3,167c0,2.1,0,4.2,0,6.3c0,0.7-0.2,1.1-1,1c-0.3,0-0.6,0-0.9,0c-0.6,0-0.9-0.2-0.8-0.8c0-4.3,0-8.7,0-13
		c0-0.6,0.2-0.8,0.8-0.8c1.9-0.1,1.9-0.1,1.9,1.7C166.3,163.3,166.3,165.1,166.3,167z"/>
	<path class="st0" d="M207.9,166.8c0-2.1,0-4.2,0-6.3c0-0.7,0.2-0.9,0.9-0.9c0.1,0,0.1,0,0.2,0c2.1,0,1.7-0.1,1.7,1.6
		c0,3.9,0,7.8,0,11.7c0,1.2,0,1.2-1.2,1.2c-0.1,0-0.1,0-0.2,0c-1.4,0-1.4,0-1.4-1.3C207.9,170.8,207.9,168.8,207.9,166.8z"/>
	<path class="st0" d="M195.1,188c0,0.5-0.2,0.9-0.4,1.4c-0.8,1.8-1.6,2-3.7,1.7c-0.3,0-0.4-0.2-0.5-0.5c-0.2-1.8,1-3,2.8-2.8
		C194,187.8,194.5,187.9,195.1,188z"/>
	<path class="st0" d="M44,183.6c-1.6,1-3,1.9-4.4,2.8c-0.3,0.2-0.6,0.4-0.9,0c-0.3-0.5,0.1-0.6,0.4-0.9c0.7-0.7,1.5-1.3,2.2-2
		c0.4-0.3,0.4-0.6,0.1-1.1c-0.8-1.2-1.6-2.4-2.4-3.7c-0.2-0.3-0.5-0.6-0.1-0.9c0.5-0.4,0.7,0,1,0.3C41.2,180,42.5,181.7,44,183.6z"
		/>
	<path class="st0" d="M153.2,192.8c-5.4,0-9,3.6-9,8.9c0,5.4,3.6,9,8.9,9.1c5.4,0,9.2-3.7,9.3-8.9
		C162.4,196.5,158.6,192.8,153.2,192.8z M153.2,207.2c-3.1,0-5.2-2.3-5.2-5.5c0-3.3,2.2-5.4,5.4-5.4c3.1,0.1,5.1,2.3,5.1,5.5
		C158.4,205,156.2,207.2,153.2,207.2z"/>
	<path class="st0" d="M191.5,192.8c-5.3,0-9,3.6-9,9c0,5.4,3.6,9,8.9,9c5.4,0,9.2-3.7,9.2-9C200.7,196.5,197,192.8,191.5,192.8z
		 M191.6,207.2c-3.2,0-5.2-2.2-5.2-5.5c0-3.2,2.1-5.3,5.3-5.3c3.1,0,5.2,2.2,5.2,5.4C196.9,204.9,194.7,207.2,191.6,207.2z"/>
	<path class="st0" d="M252.8,192.3c-0.1,0-0.2,0-0.3,0c-1.1,2.6-2.1,5.2-3.2,7.8c-1.3,3.2-2.6,6.3-3.9,9.5c-0.4,1-0.1,1.3,0.9,1.1
		c1-0.2,2-0.5,2.9-1c1.4-0.8,3-1,4.7-1.1c0.8,0,1.4,0.1,1.8,0.9c0.4,0.8,1.2,1.1,2.1,1.1c0.8,0,1.5,0.1,2.4-0.2
		C257.7,204.3,255.2,198.3,252.8,192.3z M251.1,205.1c0.4-1.4,0.9-2.7,1.5-4.2c0.4,1.2,0.8,2.1,1.1,3c0.1,0.3,0.2,0.7,0.4,1.1
		C253.1,205.3,252.2,205.2,251.1,205.1z"/>
	<path class="st0" d="M249.9,225.7c-0.7-1.3-1.9-1.9-3.3-2c-1.4,0.1-2.5,0.7-3.2,1.9c-1.6,3.1-1.7,6.2,0,9.2c1.4,2.6,5,2.5,6.4-0.1
		C251.5,231.8,251.5,228.7,249.9,225.7z M249.1,230.5c-0.5,1-1,1.9-1.6,2.8c-0.6,0.9-1.8,0.8-2.3-0.1c-0.1-0.1-0.1-0.3-0.2-0.4
		c-0.3-1.7-0.3-3.5,0-5.3c0.1-0.7,0.7-1.1,1.7-1.2c0.2,0,0.5,0.2,0.7,0.5c0.6,1,1.2,2,1.8,2.9C249.3,230,249.2,230.3,249.1,230.5z"
		/>
	<path class="st0" d="M225.4,173.6c-0.1-0.3-0.3-0.7-0.4-1c-1.9-4.6-3.7-9.2-5.7-14c-0.6,1.5-1.2,2.8-1.7,4.1
		c-1.4,3.5-2.9,7-4.3,10.6c-0.2,0.4-0.5,0.9,0,1.3c0.5,0.4,0.8,0,1.1-0.2c1.4-0.9,2.9-1.2,4.5-1.2c2,0,3.9,0.1,5.6,1.3
		c0.2,0.2,0.5,0.4,0.8,0.2C225.6,174.3,225.6,173.9,225.4,173.6z M217.7,169.2c0.4-1.4,0.9-2.7,1.5-4.2l1.5,4.2
		C219.6,169.4,218.7,169.3,217.7,169.2z"/>
</g>
</svg>
